<svg xmlns="http://www.w3.org/2000/svg" width="1622" height="70" viewBox="0 0 1622 70"><defs><style>.a{fill:#00a2de;opacity:0.22;}.b,.d{fill:#fff;}.b{fill-rule:evenodd;}.b,.c{opacity:0.69;}</style></defs><g transform="translate(-140 -890)"><path class="a" d="M10,0H1612a10,10,0,0,1,10,10V70a0,0,0,0,1,0,0H0a0,0,0,0,1,0,0V10A10,10,0,0,1,10,0Z" transform="translate(140 890)"/><path class="b" d="M487.785,94.315H422.461a5.7,5.7,0,0,1,2.782-3.349c2.892-1.574,6.412-.515,6.573-.464a1.565,1.565,0,0,1,2.135-.613v0a3.262,3.262,0,0,1,5.543-2.333,1.588,1.588,0,0,1,1.444-.93,1.548,1.548,0,0,1,.265.027,4.574,4.574,0,0,1,5.51-5.867,1.591,1.591,0,0,1,1.473-.991,1.571,1.571,0,0,1,.422.064c-.018-.212-.033-.424-.033-.64a7.582,7.582,0,1,1,15.165,0c0,.182-.015.361-.027.54a4.534,4.534,0,0,1,3.579.2,6.411,6.411,0,0,1,11.4,5.294,3.414,3.414,0,0,1,2.976,4c.018,0,.036-.006.054-.006a1.591,1.591,0,0,1,1.591,1.592c0,.005,0,.012,0,.018a6.6,6.6,0,0,1,1.6.062,3.194,3.194,0,0,1,2.876,3.408M449.327,82.489c-.016.017-.033.032-.049.047.027.039.058.075.084.114l.033-.02c-.024-.046-.046-.094-.068-.142" transform="translate(756.136 833.823)"/><path class="b" d="M517.783,104.731H422.461a8.316,8.316,0,0,1,4.059-4.888c4.22-2.3,9.356-.751,9.592-.677a2.284,2.284,0,0,1,3.116-.894v0a4.76,4.76,0,0,1,8.088-3.4,2.317,2.317,0,0,1,2.107-1.358,2.258,2.258,0,0,1,.387.039,6.674,6.674,0,0,1,8.041-8.561A2.321,2.321,0,0,1,460,83.538a2.294,2.294,0,0,1,.616.093c-.026-.309-.048-.618-.048-.933a11.064,11.064,0,1,1,22.129,0c0,.266-.022.527-.04.787a6.616,6.616,0,0,1,5.223.285,9.355,9.355,0,0,1,16.633,7.725,4.982,4.982,0,0,1,4.342,5.834c.027,0,.052-.009.079-.009a2.322,2.322,0,0,1,2.322,2.323c0,.008,0,.018,0,.026a9.635,9.635,0,0,1,2.333.09,4.66,4.66,0,0,1,4.2,4.973M461.664,87.475c-.023.024-.049.046-.072.069.04.056.084.109.123.167l.049-.029c-.035-.067-.067-.137-.1-.207" transform="translate(6.136 833.823)"/><g class="c" transform="translate(180.199 893.789)"><path class="d" d="M260.275,766.76h5.909c3.091,0,5.852.219,7.675,1.39a9.935,9.935,0,0,1,8.71-5.15h5.909a9.938,9.938,0,0,1,9.938,9.938H250.336C250.336,767.449,254.786,766.76,260.275,766.76Z" transform="translate(-250.336 -706.727)"/><path class="d" d="M293.793,614.474s-4.835-52.647,0-60.974c0,0-20.414,32.5-8.864,62.585Z" transform="translate(-254.053 -553.5)"/><path class="d" d="M311.326,688.753s-15.509-27.594-14.9-33.328c0,0-3.229,22.758,10.442,36.377Z" transform="translate(-275.536 -628.047)"/></g><g class="c" transform="translate(1680.199 893.789)"><path class="d" d="M288.478,766.76h-5.909c-3.091,0-5.852.219-7.675,1.39a9.935,9.935,0,0,0-8.71-5.15h-5.909a9.938,9.938,0,0,0-9.938,9.938h48.081C298.417,767.449,293.967,766.76,288.478,766.76Z" transform="translate(-250.336 -706.727)"/><path class="d" d="M281.389,614.474s4.835-52.647,0-60.974c0,0,20.414,32.5,8.864,62.585Z" transform="translate(-273.048 -553.5)"/><path class="d" d="M296.1,688.753s15.509-27.594,14.9-33.328c0,0,3.229,22.758-10.442,36.377Z" transform="translate(-283.804 -628.047)"/></g></g></svg>