<svg xmlns="http://www.w3.org/2000/svg" xmlns:xlink="http://www.w3.org/1999/xlink" width="1920" height="656" viewBox="0 0 1920 656"><defs><style>.a{fill:#fff;stroke:#707070;}.b{clip-path:url(#a);}.c{fill:#00a2de;}.d{clip-path:url(#b);}.e{fill:#96ca41;opacity:0.1;}</style><clipPath id="a"><rect class="a" width="1920" height="656" transform="translate(-2492 8345)"/></clipPath><clipPath id="b"><rect class="a" width="1920" height="656" transform="translate(-2925 7339)"/></clipPath></defs><g transform="translate(2491 -8319)"><g class="b" transform="translate(1 -26)"><path class="c" d="M2473.827,8186s-390.936,3.71-685.137,206.837-514.851,256.847-726.848,270.276-432.648,5.036-668.44,82.258S53.773,8839.381,1.856,8841.06s2471.971-1.68,2471.971-1.68Z" transform="translate(-3045.827 159)"/></g><g class="d" transform="translate(434 980)"><path class="e" d="M1.065,8186S392,8189.71,686.2,8392.837s514.851,256.847,726.848,270.276,432.648,5.036,668.44,82.258,339.628,94.01,391.546,95.688S1.065,8839.38,1.065,8839.38Z" transform="translate(-2926.065 -846)"/></g></g></svg>