<svg xmlns="http://www.w3.org/2000/svg" width="17.8" height="19.884" viewBox="0 0 17.8 19.884">
    <g id="prefix__Group_786" data-name="Group 786" transform="translate(-434.5 -589.466)">
        <g id="prefix__Group_759" data-name="Group 759" transform="translate(-82.302 -65)">
            <path id="prefix__Path_19335" d="M23.845 5.253A14.738 14.738 0 0 1 16.4 2.6a.6.6 0 0 0-.792 0 14.738 14.738 0 0 1-7.453 2.653.621.621 0 0 0-.555.614c0 11.689 7.825 15.215 8.162 15.374a.505.505 0 0 0 .475 0c.338-.141 8.163-3.685 8.163-15.374a.607.607 0 0 0-.555-.614z" data-name="Path 19335" transform="translate(509.702 652.55)" style="stroke-miterlimit:10;fill:#777;stroke:#777"/>
            <path id="prefix__Path_19336" d="M41 42.378l2.074 2.074a1.356 1.356 0 0 0 1.9 0l3.8-3.8" data-name="Path 19336" transform="translate(480.814 620.784)" style="fill:none;stroke:#fff;stroke-linecap:round;stroke-width:1.5px;stroke-miterlimit:10"/>
        </g>
    </g>
</svg>
