<svg xmlns="http://www.w3.org/2000/svg" width="148.241" height="134.65" viewBox="0 0 148.241 134.65">
    <defs>
        <style>
            .prefix__cls-1,.prefix__cls-3{fill:none;stroke-miterlimit:10;stroke-width:2px}.prefix__cls-1{stroke:rgba(51,51,51,.4)}.prefix__cls-3{stroke:#41a8dd;stroke-linecap:round}
        </style>
    </defs>
    <g id="prefix__Group_855" data-name="Group 855" transform="translate(-93.247 -101.221)">
        <path id="prefix__Path_19376" d="M119.178 234.572v-65.334a1.177 1.177 0 0 1 1.177-1.177h118.956a1.177 1.177 0 0 1 1.177 1.177V233.5a1.177 1.177 0 0 1-1.177 1.177H123.988l-7.456.191h-15.861a6.423 6.423 0 0 1-6.424-6.424v-119.8a6.423 6.423 0 0 1 6.424-6.424h65.9a6.423 6.423 0 0 1 6.429 6.425V167.8" class="prefix__cls-1" data-name="Path 19376"/>
        <rect id="prefix__Rectangle_1704" width="25.167" height="35.575" data-name="Rectangle 1704" rx="4" transform="translate(102.732 111.008)" style="fill:rgba(65,168,221,.4);stroke-miterlimit:10;stroke-width:2px;stroke:rgba(51,51,51,.4)"/>
        <path id="prefix__Line_19" d="M0 0L0 10.129" class="prefix__cls-3" data-name="Line 19" transform="translate(162.338 110.72)"/>
        <path id="prefix__Line_20" d="M0 0L0 10.611" class="prefix__cls-3" data-name="Line 20" transform="translate(162.338 130.72)"/>
        <path id="prefix__Line_21" d="M0 0L0 10.933" class="prefix__cls-3" data-name="Line 21" transform="translate(162.338 150.72)"/>
        <path id="prefix__Path_19377" d="M364.107 149.321a50.9 50.9 0 0 1 50.9 50.9" data-name="Path 19377" transform="translate(-190.426 -33.236)" style="stroke-dasharray:6;stroke-linecap:round;stroke-miterlimit:10;stroke-width:2px;stroke:rgba(51,51,51,.4);fill:none"/>
        <path id="prefix__Path_19378" d="M312.059 364.681a7.946 7.946 0 0 1-7.525-10.5h-81.166a7.95 7.95 0 0 1-10.3 10v30.172a7.95 7.95 0 0 1 10.209 10.253h81.341a7.949 7.949 0 0 1 10.065-10.3v-30.071a7.936 7.936 0 0 1-2.624.446z" class="prefix__cls-1" data-name="Path 19378" transform="translate(-83.848 -177.794)"/>
    </g>
</svg>
