<svg xmlns="http://www.w3.org/2000/svg" width="42" height="20" viewBox="0 0 42 20">
    <defs>
        <style>
            .prefix__cls-3{fill:#2a2a89}
        </style>
    </defs>
    <g id="prefix__Group_620" data-name="Group 620" transform="translate(.359 -.41)">
        <g id="prefix__Rupay">
            <g id="prefix__Rectangle_226" data-name="Rectangle 226" style="fill:#fff;stroke:#e8e8e8">
                <path d="M0 0H42V20H0z" style="stroke:none" transform="translate(-.359 .41)"/>
                <path d="M0.5 0.5H41.5V19.5H0.5z" style="fill:none" transform="translate(-.359 .41)"/>
            </g>
            <g id="prefix__Group_326" data-name="Group 326" transform="translate(2.471 5.225)" style="opacity:.5">
                <path id="prefix__Path_371" d="M330.64 246.752c.169-1.34-.852-1.9-2.127-1.9h-3.349l-1.977 7.206h2.128l.6-2.222 1.7.01s2.621.113 3.025-3.094zm-2.189.715a1 1 0 0 1-1.04.682h-1.041l.411-1.531h1.1a.585.585 0 0 1 .571.849z" class="prefix__cls-3" data-name="Path 371" transform="translate(-310.388 -244.853)"/>
                <path id="prefix__Path_372" d="M250.6 270.1h1.941l-.8 3.076s-.2.686.442.739c.507.042.884-.563 1.008-.973.162-.538.793-2.842.793-2.842h2l-1.522 5.236h-1.746l.215-.748a2.772 2.772 0 0 1-2.215.956c-1.177-.116-1.278-.969-1.074-2.034.102-.52.958-3.41.958-3.41z" class="prefix__cls-3" data-name="Path 372" transform="translate(-242.507 -268.132)"/>
                <path id="prefix__Path_373" d="M409.767 269.683c.256-.871.579-1.7.319-2.153-.4-.7-1.119-.761-2.172-.761-1.164 0-2.6.221-3.07 1.769h1.938a.852.852 0 0 1 .9-.546c.644.032.609.476.371.72-.416.429-1.565.191-2.838.633a2.154 2.154 0 0 0-1.26 2.432c.234.566.67.638 1.259.7a2.651 2.651 0 0 0 2.006-.743c0 .343.009.535.009.535h2.039v-.192s-.182-.048-.161-.3c.014-.195.366-1.094.66-2.094zm-2.932 1.516c-.333.084-.736.13-.816-.172-.22-.828 1.719-1.07 1.719-1.07a1.34 1.34 0 0 1-.904 1.243z" class="prefix__cls-3" data-name="Path 373" transform="translate(-384.792 -265.059)"/>
                <path id="prefix__Path_374" d="M166.8 246.531c.169-1.34-1.01-1.678-2.284-1.678h-3.35l-1.977 7.206h2.128l.665-2.447 1.194.01s.493-.029.5.434c.01.494-.366 1.4-.341 2h2.187v-.192s-.182-.048-.161-.3a7.6 7.6 0 0 1 .279-.9 2.763 2.763 0 0 0 .219-1.06c-.016-.482-.318-.706-.755-.862 1.354-.315 1.696-2.211 1.696-2.211zm-2.258.92c-.275.638-1.129.565-1.129.565h-.993l.363-1.35h1.325c.464-.001.61.373.432.785z" class="prefix__cls-3" data-name="Path 374" transform="translate(-159.187 -244.853)"/>
                <path id="prefix__Path_375" d="M474.329 270.1h1.977v3.141l1.71-3.141h1.815l-3.658 6.351a3.218 3.218 0 0 1-.761.815 1.735 1.735 0 0 1-.9.231c-.723-.006-1.594-.008-1.594-.008l.42-1.514h.68a.747.747 0 0 0 .432-.185.758.758 0 0 0 .173-.507c-.001-.322-.294-5.183-.294-5.183z" class="prefix__cls-3" data-name="Path 375" transform="translate(-448.431 -268.132)"/>
                <path id="prefix__Path_376" d="M567.054 254.6l-2.283 7.941 4.273-3.971z" data-name="Path 376" transform="translate(-533.117 -253.842)" style="fill:#0f8047"/>
                <path id="prefix__Path_377" d="M548.3 254.6l-2.283 7.941 4.273-3.971z" data-name="Path 377" transform="translate(-515.831 -253.842)" style="fill:#f0721d"/>
            </g>
        </g>
    </g>
</svg>
