<svg xmlns="http://www.w3.org/2000/svg" width="41" height="20" viewBox="0 0 41 20">
    <defs>
        <style>
            .prefix__cls-4{fill:#009ddc}
        </style>
    </defs>
    <g id="prefix__Group_619" data-name="Group 619" transform="translate(.487 -.41)">
        <g id="prefix__American_express">
            <g id="prefix__Rectangle_225" data-name="Rectangle 225" style="stroke:#e8e8e8;fill:#fff">
                <path d="M0 0H41V20H0z" style="stroke:none" transform="translate(-.487 .41)"/>
                <path d="M0.5 0.5H40.5V19.5H0.5z" style="fill:none" transform="translate(-.487 .41)"/>
            </g>
            <g id="prefix__Group_329" data-name="Group 329" transform="translate(12.635 2.632)" style="opacity:.5">
                <g id="prefix__Group_327" data-name="Group 327">
                    <path id="prefix__Rectangle_212" d="M0 0H15.03V15.093H0z" data-name="Rectangle 212" style="fill:#fff"/>
                </g>
                <path id="prefix__Path_378" d="M191.569 282.07h-1.127v-.38h1v-.4h-1v-.347h1.148l.5.559-.524.562m1.115-.556l.7-.757v1.549zm1.756-.081h-.594v-.484h.6c.165 0 .278.069.278.235s-.107.256-.281.256zm2.235-.1a.435.435 0 0 1-.226.039h-.559v-.428h.566a.5.5 0 0 1 .218.032.188.188 0 0 1 .094.173.205.205 0 0 1-.09.195zm-2.231-.788h-1.466l-.585.63-.563-.63h-1.847v1.921h1.82l.586-.634.565.634h.893v-.643h.57c.4 0 .8-.112.8-.644s-.408-.623-.77-.623zm2.6.093a1.069 1.069 0 0 0-.552-.093h-1.058v1.921h.459v-.7h.493c.167 0 .267.014.333.084a.567.567 0 0 1 .074.373v.242h.461v-.381a.549.549 0 0 0-.075-.348.507.507 0 0 0-.226-.163.538.538 0 0 0 .327-.51.445.445 0 0 0-.235-.414zm2.023 1.428h-1.073v-.38h1.048v-.4h-1.048v-.347h1.073v-.4h-1.532v1.921h1.532zm1.749-.613a.716.716 0 0 0-.524-.155l-.246-.006a.564.564 0 0 1-.176-.022.146.146 0 0 1-.1-.142.15.15 0 0 1 .068-.138.313.313 0 0 1 .184-.033h.842v-.412h-.92a.572.572 0 0 0-.657.57c0 .61.539.585.967.6a.244.244 0 0 1 .16.044.158.158 0 0 1 .056.127.171.171 0 0 1-.054.126.268.268 0 0 1-.184.047h-.891v.411h.894c.465 0 .721-.2.721-.606a.527.527 0 0 0-.139-.4zm1.932.407c0 .408-.256.606-.721.606h-.886v-.411h.882a.268.268 0 0 0 .185-.047.171.171 0 0 0 .054-.126.158.158 0 0 0-.056-.127.243.243 0 0 0-.16-.044c-.428-.012-.967.015-.967-.6 0-.275.175-.571.657-.57h.915v.412h-.838a.313.313 0 0 0-.183.033.15.15 0 0 0-.067.138.145.145 0 0 0 .1.142.565.565 0 0 0 .175.022l.246.006a.715.715 0 0 1 .524.155.529.529 0 0 1 .14.423z" class="prefix__cls-4" data-name="Path 378" transform="translate(-187.616 -272.079)"/>
                <g id="prefix__Group_328" data-name="Group 328">
                    <path id="prefix__Path_379" d="M109.831 208.488l.286-.764.287.764h-.573m6.9-.3a.367.367 0 0 1-.206.039h-.511v-.427h.517a.409.409 0 0 1 .2.033.191.191 0 0 1 .086.173.21.21 0 0 1-.087.179zm3.633.3l-.287-.764-.286.764zm-6.775-1.092h-.7l-.506 1.3-.547-1.3h-.687v1.818l-.711-1.818h-.625l-.752 1.922h.458l.161-.43h.874l.162.43h.854v-1.507l.61 1.507h.369l.609-1.5v1.5h.43zm1.715 1.521h-.982v-.38h.959v-.4h-.959v-.337h.982v-.4h-1.4v1.922h1.4zm1.763-1.427a.907.907 0 0 0-.505-.094h-.967v1.922h.42v-.7h.45c.153 0 .245.015.305.084a.606.606 0 0 1 .069.372v.243h.423v-.381a.59.59 0 0 0-.069-.348.477.477 0 0 0-.206-.163.539.539 0 0 0 .3-.51.454.454 0 0 0-.221-.424zm.458 1.827h.43V207.4h-.43zm5.4 0h-.6l-.794-1.44v1.44h-.854l-.162-.43h-.873l-.161.43h-.488a.838.838 0 0 1-.61-.213 1.027 1.027 0 0 1-.222-.734 1.086 1.086 0 0 1 .225-.75.812.812 0 0 1 .639-.225h.4v.412h-.392a.382.382 0 0 0-.325.114.657.657 0 0 0-.123.435.688.688 0 0 0 .119.451.377.377 0 0 0 .291.1h.189l.59-1.51h.625l.711 1.817V207.4h.641l.739 1.338V207.4h.432z" class="prefix__cls-4" data-name="Path 379" transform="translate(-109.058 -201.934)"/>
                    <path id="prefix__Path_380" d="M124 82.833h-.783a.891.891 0 0 0-.53.142v-.142h-1.154a.824.824 0 0 0-.507.142v-.142h-2.063v.142a1.124 1.124 0 0 0-.572-.142h-1.362v.142a.955.955 0 0 0-.591-.142h-1.527l-.35.379-.325-.379h-2.278V85.3h2.235l.358-.385.339.383h1.376v-.582h.137a1.473 1.473 0 0 0 .585-.085v.669h1.139v-.646h.056c.069 0 .074.005.074.072v.574h3.45a1 1 0 0 0 .576-.157v.157h1.094a1.487 1.487 0 0 0 .62-.113v4.52H108.97v-7.449h.721l.163-.4h.364l.163.4h1.42v-.3l.127.3h.736l.127-.306v.306h3.527v-.646h.069c.05 0 .063.006.063.085v.561h1.825V82.1a1.423 1.423 0 0 0 .677.154h.768l.165-.4h.363l.163.4h1.476v-.375l.227.375h1.186v-2.463h-1.172v.291l-.168-.291h-1.2v.291l-.148-.291h-1.626a1.456 1.456 0 0 0-.707.142v-.142h-1.121v.142a.715.715 0 0 0-.479-.142h-4.1l-.277.636-.281-.636h-1.29v.291l-.146-.291h-1.1l-.509 1.17v-6.347H124v8.219" class="prefix__cls-4" data-name="Path 380" transform="translate(-108.97 -74.614)"/>
                </g>
            </g>
        </g>
    </g>
</svg>
