<svg xmlns="http://www.w3.org/2000/svg" width="10.226" height="12.067" viewBox="0 0 10.226 12.067">
    <defs>
        <style>
            .prefix__cls-1{fill:#777}
        </style>
    </defs>
    <g id="prefix__Group_745" data-name="Group 745" transform="translate(-100.999 -116.098)">
        <path id="prefix__Path_19323" d="M109.724 117.008a3.725 3.725 0 0 0-2.861-.91h-3.75a.537.537 0 0 0-.531.453l-1.561 9.9a.322.322 0 0 0 .318.372h2.315l.581-3.688-.018.115a.535.535 0 0 1 .528-.453h1.1c2.161 0 3.853-.878 4.348-3.417q.022-.113.038-.22a2.4 2.4 0 0 0-.509-2.156" class="prefix__cls-1" data-name="Path 19323" transform="translate(-.018)"/>
        <path id="prefix__Path_19324" d="M109.724 117.008a3.725 3.725 0 0 0-2.861-.91h-3.75a.537.537 0 0 0-.531.453l-1.561 9.9a.322.322 0 0 0 .318.372h2.315l.581-3.688-.018.115a.535.535 0 0 1 .528-.453h1.1c2.161 0 3.853-.878 4.348-3.417q.022-.113.038-.22a2.4 2.4 0 0 0-.509-2.156" class="prefix__cls-1" data-name="Path 19324" transform="translate(-.018)"/>
        <path id="prefix__Path_19325" d="M104.843 119.192a.47.47 0 0 1 .464-.4h2.94a6.181 6.181 0 0 1 .97.07 4.075 4.075 0 0 1 .481.107 2.655 2.655 0 0 1 .518.206 2.4 2.4 0 0 0-.508-2.156 3.727 3.727 0 0 0-2.861-.91h-3.75a.537.537 0 0 0-.53.453l-1.561 9.9a.322.322 0 0 0 .318.372h2.315l.581-3.688z" class="prefix__cls-1" data-name="Path 19325" transform="translate(0 -.016)"/>
        <path id="prefix__Path_19326" d="M225.729 262.338q-.017.11-.038.22c-.494 2.539-2.187 3.417-4.348 3.417h-1.1a.535.535 0 0 0-.528.453l-.564 3.572-.16 1.013a.282.282 0 0 0 .234.322.278.278 0 0 0 .044 0h1.952a.47.47 0 0 0 .464-.4l.019-.1.368-2.331.023-.129a.47.47 0 0 1 .464-.4h.292a3.44 3.44 0 0 0 3.8-2.989 2.549 2.549 0 0 0-.391-2.248 1.865 1.865 0 0 0-.534-.412" class="prefix__cls-1" data-name="Path 19326" transform="translate(-115.515 -143.174)"/>
        <path id="prefix__Path_19327" d="M259.17 244.206q-.113-.034-.233-.06c-.08-.018-.163-.033-.248-.047a6.06 6.06 0 0 0-.97-.071h-2.94a.469.469 0 0 0-.464.4l-.625 3.962-.018.115a.535.535 0 0 1 .528-.453h1.1c2.161 0 3.853-.878 4.348-3.417.015-.075.027-.148.038-.22a2.669 2.669 0 0 0-.407-.172l-.111-.035" class="prefix__cls-1" data-name="Path 19327" transform="translate(-149.473 -125.248)"/>
    </g>
</svg>
