<svg xmlns="http://www.w3.org/2000/svg" width="96.005" height="16" viewBox="0 0 96.005 16">
    <defs>
        <style>
            .prefix__cls-1{fill:#003e7c}.prefix__cls-2{fill:#fff}
        </style>
    </defs>
    <g id="prefix__layer1" transform="translate(-.453 -3.829)">
        <g id="prefix__g11008" transform="translate(.453 3.829)">
            <path id="prefix__path1556" d="M.453 3.829h96.005v16H.453z" class="prefix__cls-1" transform="translate(-.453 -3.829)"/>
            <path id="prefix__path1558" d="M24.545 3.829h80v16h-80z" class="prefix__cls-1" transform="translate(-8.544 -3.829)"/>
            <path id="prefix__path1560" d="M32.206 17.745v-7.57H34.7v2.555h2.33v-2.555h2.495v7.57H37.03v-2.937H34.7v2.937h-2.49" class="prefix__cls-2" transform="translate(-11.116 -5.96)"/>
            <path id="prefix__path1562" d="M47.926 12.056h.646a2.673 2.673 0 0 1 1.022.145.973.973 0 0 1 .407.332 1.89 1.89 0 0 1 .251.6 3.416 3.416 0 0 1 .086.772 2.787 2.787 0 0 1-.191 1.113 1.284 1.284 0 0 1-.545.648 2.163 2.163 0 0 1-1.048.2h-.628zm.962 5.689a5.764 5.764 0 0 0 1.472-.155 3.279 3.279 0 0 0 .976-.4 2.85 2.85 0 0 0 .693-.672 3.889 3.889 0 0 0 .535-1.1 4.8 4.8 0 0 0 .217-1.513 4.348 4.348 0 0 0-.481-2.124 2.8 2.8 0 0 0-1.334-1.237 5.032 5.032 0 0 0-2.016-.366h-3.46v7.57h3.4" class="prefix__cls-2" transform="translate(-15.577 -5.96)"/>
            <path id="prefix__path1564" d="M58.188 17.745v-7.57h5.907v1.867h-3.449v1.213H63.4v1.817h-2.754v2.674h-2.458" class="prefix__cls-2" transform="translate(-19.842 -5.96)"/>
            <path id="prefix__path1566" d="M75.8 12.967h-2.356a1.4 1.4 0 0 0-.408-.887 1.238 1.238 0 0 0-.871-.312 1.323 1.323 0 0 0-1.074.509 2.63 2.63 0 0 0-.416 1.655 3.2 3.2 0 0 0 .177 1.2 1.317 1.317 0 0 0 .493.615 1.442 1.442 0 0 0 .792.2 1.233 1.233 0 0 0 .911-.317 1.4 1.4 0 0 0 .406-.932h2.394a4.248 4.248 0 0 1-.284 1.187 3.059 3.059 0 0 1-.68.958 3.257 3.257 0 0 1-1.142.747 4.133 4.133 0 0 1-1.533.258 4.853 4.853 0 0 1-1.6-.252 3.486 3.486 0 0 1-1.235-.727 3.537 3.537 0 0 1-.784-1.082 4.345 4.345 0 0 1-.4-1.893 4.653 4.653 0 0 1 .286-1.644 3.694 3.694 0 0 1 .791-1.277 3.413 3.413 0 0 1 1.116-.774 4.342 4.342 0 0 1 1.724-.328 4.787 4.787 0 0 1 1.545.243 2.929 2.929 0 0 1 1.183.717 3.281 3.281 0 0 1 .718 1.09 3.612 3.612 0 0 1 .237 1.048" class="prefix__cls-2" transform="translate(-23.202 -5.857)"/>
            <path id="prefix__path1568" d="M90.03 11.879a3.1 3.1 0 0 1 .692.048.7.7 0 0 1 .352.234.616.616 0 0 1 .135.394.588.588 0 0 1-.223.473 1.31 1.31 0 0 1-.809.185h-.937v-1.334zm.626 5.867a6.756 6.756 0 0 0 1.247-.08 3.854 3.854 0 0 0 .739-.262 2.128 2.128 0 0 0 .559-.383 1.759 1.759 0 0 0 .44-.658 2.379 2.379 0 0 0 .157-.881 1.835 1.835 0 0 0-.341-1.138 1.69 1.69 0 0 0-.926-.622 1.845 1.845 0 0 0 .986-1.6 1.7 1.7 0 0 0-.863-1.539 4.09 4.09 0 0 0-2.068-.406H86.83v7.57zm-.4-3.171a1.694 1.694 0 0 1 .974.187.632.632 0 0 1 .23.519.642.642 0 0 1-.244.537 1.586 1.586 0 0 1-.96.191H89.24v-1.434h1.016" class="prefix__cls-2" transform="translate(-29.46 -5.96)"/>
            <path id="prefix__path1570" d="M103.151 15.2h-1.583l.781-2.754zm-2.328 2.545l.288-.994h2.478l.29.994h2.476l-2.716-7.57h-2.529l-2.718 7.57h2.43" class="prefix__cls-2" transform="translate(-33.343 -5.96)"/>
            <path id="prefix__path1572" d="M111.957 17.745v-7.57h2.32l2.617 4.053v-4.053h2.386v7.57h-2.37l-2.561-3.953v3.953h-2.392" class="prefix__cls-2" transform="translate(-37.898 -5.96)"/>
            <path id="prefix__path1574" d="M125.482 17.745v-7.57h2.412v2.5l2.252-2.5h2.925l-2.771 2.851 3.061 4.72h-2.981l-1.821-3.015-.662.654v2.362h-2.412" class="prefix__cls-2" transform="translate(-42.44 -5.96)"/>
            <path id="prefix__path1576" d="M.453 3.829h16v16h-16z" transform="translate(-.453 -3.829)" style="fill:#e4061f"/>
            <path id="prefix__path1578" d="M4.67 8.046h10.4v10.4H4.67z" class="prefix__cls-2" transform="translate(-1.869 -5.245)"/>
            <path id="prefix__path1580" d="M11.294 3.829h1.6v16h-1.6z" class="prefix__cls-2" transform="translate(-4.094 -3.829)"/>
            <path id="prefix__path1582" d="M.453 14.673h16v1.6h-16z" class="prefix__cls-2" transform="translate(-.453 -7.471)"/>
            <path id="prefix__path1584" d="M8.886 12.262h4.8v4.8h-4.8z" class="prefix__cls-1" transform="translate(-3.285 -6.661)"/>
        </g>
    </g>
</svg>
