<svg xmlns="http://www.w3.org/2000/svg" width="78.495" height="15.533" viewBox="0 0 78.495 15.533">
    <defs>
        <style>
            .prefix__cls-1{fill:#005b75}
        </style>
    </defs>
    <g id="prefix__g11" transform="translate(-277.607 -269.572)">
        <g id="prefix__g2542" transform="translate(277.607 269.572)">
            <path id="prefix__path13" d="M330.475 305.646h2.648l2.077-7.738h-2.649l-2.076 7.738" class="prefix__cls-1" transform="translate(-316.201 -290.258)"/>
            <path id="prefix__path15" d="M380.861 305.646h2.648l2.077-7.738h-2.648l-2.077 7.738" class="prefix__cls-1" transform="translate(-352.984 -290.258)"/>
            <path id="prefix__path17" d="M431.248 305.646h2.652l2.077-7.738h-2.648l-2.077 7.738" class="prefix__cls-1" transform="translate(-389.767 -290.258)"/>
            <path id="prefix__path19" d="M353.853 300.6h2.65c.352-1.74-.774-2.635-3.372-2.635-3 0-5.047 1.468-5.732 4.021-.621 2.312.608 3.72 3.436 3.72 2.859 0 4.547-.887 5.269-2.877h-2.661a2.049 2.049 0 0 1-2.006 1.334c-1.283 0-1.785-.813-1.391-2.281a2.775 2.775 0 0 1 2.672-2.375c.814 0 1.2.364 1.136 1.094" class="prefix__cls-1" transform="translate(-328.441 -290.301)"/>
            <path id="prefix__path21" d="M404.24 300.6h2.65c.352-1.74-.774-2.635-3.372-2.635-3 0-5.047 1.468-5.733 4.021-.62 2.312.609 3.72 3.436 3.72 2.859 0 4.547-.887 5.269-2.877h-2.66a2.049 2.049 0 0 1-2.006 1.334c-1.283 0-1.785-.813-1.391-2.281a2.775 2.775 0 0 1 2.672-2.375c.814 0 1.2.364 1.136 1.094" class="prefix__cls-1" transform="translate(-365.224 -290.301)"/>
            <path id="prefix__path23" d="M281.65 272.931c3.548-3.51 7.837-4.418 9.548-2.019s.213 7.218-3.335 10.728-7.836 4.418-9.548 2.019-.213-7.218 3.335-10.728" transform="translate(-277.607 -269.572)" style="fill:#f99d27"/>
            <path id="prefix__path25" d="M288.607 271.107a10.9 10.9 0 0 0-1.172 1c-3.109 3.057-4.4 7.259-2.87 9.36 1.579 2.1 5.4 1.337 8.562-1.767a12.124 12.124 0 0 0 3.324-5.372 4.975 4.975 0 0 0-.646-3.366c-1.363-1.862-4.281-1.719-7.2.143" transform="translate(-282.217 -269.619)" style="fill:#b02a30"/>
            <path id="prefix__path27" d="M296.634 274.139c.413.413.161 1.316-.543 2.026s-1.635.955-2.035.548c-.427-.406-.175-1.322.536-2.039s1.641-.935 2.042-.535zm-2.5 12.424a6.76 6.76 0 0 1-5.051 1.6c.7.036 1.27-.742 1.735-1.787a17.473 17.473 0 0 0 .982-2.994 5.5 5.5 0 0 0 .188-2.748c-.284-.374-.931-.278-1.661.142-.349.193-.814.064-.265-.6a13.361 13.361 0 0 1 3.561-2.536c.872-.252 1.868.09 1.532 1.045-.239.7-3.3 8.706-1.021 7.875" transform="translate(-285.984 -272.761)" style="fill:#fff"/>
            <path id="prefix__path29" d="M456.072 305.7h3.972a4.493 4.493 0 0 0 2.778-.645 2.736 2.736 0 0 0 1.1-1.537c.286-1.064-.2-1.773-1.416-1.946a2.435 2.435 0 0 0 2.111-1.73 1.281 1.281 0 0 0-.475-1.558 3.97 3.97 0 0 0-2.046-.322h-3.95zm3.428-6.556h1.647c1.238 0 1.811.151 1.6.924s-.873.968-2.155.968h-1.6zm-1.427 5.32l.606-2.257h1.733c1.335 0 1.928.237 1.683 1.15-.225.838-.879 1.107-2.085 1.107h-1.937" class="prefix__cls-1" transform="translate(-407.888 -290.294)"/>
            <path id="prefix__path31" d="M490.378 311.682h1.593a8.828 8.828 0 0 1 .248-1.2l.58-2.16c.383-1.43-.325-2.16-2.122-2.16-1.733 0-2.863.6-3.21 1.612H489c.2-.505.64-.742 1.372-.742.818 0 1.108.365.9 1.15l-.026.1h-.84c-2.369 0-3.646.43-4.013 1.795-.283 1.053.383 1.743 1.793 1.743a3.453 3.453 0 0 0 2.355-.872zm.615-2.493l-.026.1a2.079 2.079 0 0 1-2.066 1.6c-.721 0-1.023-.279-.885-.8.19-.709.812-.9 1.965-.9h1.012" class="prefix__cls-1" transform="translate(-429.972 -296.28)"/>
            <path id="prefix__path33" d="M512.324 311.712h1.6l.741-2.762a2.286 2.286 0 0 1 2.146-1.7c.937 0 1.264.548.969 1.644l-.756 2.816h1.576l.888-3.31c.375-1.4-.335-2.2-1.9-2.2a3.3 3.3 0 0 0-2.528 1.075l.192-.957h-1.582q-.244 1.273-.327 1.58l-1.024 3.815" class="prefix__cls-1" transform="translate(-448.953 -296.31)"/>
            <path id="prefix__path35" d="M540.809 305.7h1.561l.781-2.912 2.1 2.912h2.149l-2.369-3.084 3.215-2.311h-2.013l-2.994 2.171 1.211-4.514h-1.56l-2.077 7.738" class="prefix__cls-1" transform="translate(-469.747 -290.294)"/>
        </g>
    </g>
</svg>
