<svg xmlns="http://www.w3.org/2000/svg" width="31.98" height="31.98" viewBox="0 0 31.98 31.98"><defs><style>.a{fill:none;stroke:#00afef;}</style></defs><path class="a" d="M33.066,17.839,19.125,3.9A3.079,3.079,0,0,0,16.941,3H6.1A3.107,3.107,0,0,0,3,6.1V16.941a3.091,3.091,0,0,0,.914,2.2L17.855,33.082a3.079,3.079,0,0,0,2.184.9,3.029,3.029,0,0,0,2.184-.914L33.066,22.223a3.029,3.029,0,0,0,.914-2.184,3.129,3.129,0,0,0-.914-2.2ZM8.422,10.745a2.323,2.323,0,1,1,2.324-2.324A2.32,2.32,0,0,1,8.422,10.745Z" transform="translate(-2.5 -2.5)"/></svg>