<svg xmlns="http://www.w3.org/2000/svg" width="40.984" height="37.568" viewBox="0 0 40.984 37.568">
  <g id="checkmark_1_" data-name="checkmark (1)" transform="translate(0 -0.008)">
    <path id="Path_13496" data-name="Path 13496" d="M18.784,37.576a18.784,18.784,0,1,1,10.133-34.6,1.282,1.282,0,0,1-1.385,2.157,16.22,16.22,0,1,0,7.474,13.658c0-.535-.026-1.064-.075-1.585a1.281,1.281,0,1,1,2.55-.248q.087.9.087,1.832A18.806,18.806,0,0,1,18.784,37.576Zm0,0" fill="#6da523"/>
    <path id="Path_13497" data-name="Path 13497" d="M158.3,42.693a1.271,1.271,0,0,1-.9-.376l-7.684-7.684a1.281,1.281,0,1,1,1.812-1.812l6.779,6.779,17.877-17.877A1.281,1.281,0,1,1,178,23.535L159.211,42.319a1.283,1.283,0,0,1-.907.374Zm0,0" transform="translate(-137.386 -19.632)" fill="#6da523"/>
  </g>
</svg>
