<svg xmlns="http://www.w3.org/2000/svg" width="15.498" height="13.66" viewBox="0 0 15.498 13.66">
    <path id="prefix__Path_19309" d="M.955 5.746h14.09a.7.7 0 0 0 .229-1.371L8.286 1.232a.7.7 0 0 0-.578 0L.666 4.4a.7.7 0 0 0 .289 1.346zm.88 7.675a.7.7 0 0 0 0 1.409h12.323a.7.7 0 1 0 0-1.409h-.176v-5.64h.384a.705.705 0 0 0 0-1.4H1.791a.705.705 0 0 0 0 1.4h.221v5.64zm1.585-5.64h2.112v5.64H3.42zm3.52 0h2.112v5.64H6.94zm3.521 0h2.112v5.64h-2.112z" data-name="Path 19309" transform="translate(-.251 -1.17)" style="fill:#777;fill-rule:evenodd"/>
</svg>
