<svg xmlns="http://www.w3.org/2000/svg" width="40" height="40" viewBox="0 0 40 40">
  <g id="phone" transform="translate(6038 -9270)">
    <g id="Ellipse_794" data-name="Ellipse 794" transform="translate(-6038 9270)" fill="#fff" stroke="#aaa" stroke-width="0.5">
      <circle cx="20" cy="20" r="20" stroke="none"/>
      <circle cx="20" cy="20" r="19.75" fill="none"/>
    </g>
    <g id="phone_1_" data-name="phone (1)" transform="translate(-6025 9283)">
      <path id="Path_688" data-name="Path 688" d="M10.618,14.773a4.116,4.116,0,0,1-1.412-.252,15.058,15.058,0,0,1-5.468-3.485A15.057,15.057,0,0,1,.253,5.568,4.086,4.086,0,0,1,.044,3.559,4.19,4.19,0,0,1,2.2.492,4.114,4.114,0,0,1,4.167,0a.462.462,0,0,1,.451.365l.725,3.382a.462.462,0,0,1-.125.423L3.98,5.408a12.152,12.152,0,0,0,5.386,5.386L10.6,9.555a.462.462,0,0,1,.423-.125l3.382.725a.462.462,0,0,1,.365.451,4.114,4.114,0,0,1-.492,1.97,4.19,4.19,0,0,1-3.067,2.154A4.107,4.107,0,0,1,10.618,14.773ZM3.8.944A3.235,3.235,0,0,0,1.121,5.253a14,14,0,0,0,8.4,8.4,3.235,3.235,0,0,0,4.309-2.678l-2.751-.589L9.786,11.679a.462.462,0,0,1-.523.091A13.072,13.072,0,0,1,3,5.51.462.462,0,0,1,3.1,4.987L4.388,3.694Z" transform="translate(0 0)" fill="#5c5c5c"/>
      <path id="Path_689" data-name="Path 689" d="M247.406,7.848a.462.462,0,0,1-.462-.462A6.47,6.47,0,0,0,240.482.923a.462.462,0,0,1,0-.923,7.386,7.386,0,0,1,7.386,7.386A.462.462,0,0,1,247.406,7.848Z" transform="translate(-233.094)" fill="#5c5c5c"/>
      <path id="Path_690" data-name="Path 690" d="M245.56,70a.462.462,0,0,1-.462-.462,4.622,4.622,0,0,0-4.617-4.617.462.462,0,0,1,0-.923,5.546,5.546,0,0,1,5.54,5.54A.462.462,0,0,1,245.56,70Z" transform="translate(-233.094 -62.153)" fill="#5c5c5c"/>
      <path id="Path_691" data-name="Path 691" d="M243.713,132.155a.462.462,0,0,1-.462-.462,2.773,2.773,0,0,0-2.77-2.77.462.462,0,0,1,0-.923,3.7,3.7,0,0,1,3.693,3.693A.462.462,0,0,1,243.713,132.155Z" transform="translate(-233.094 -124.307)" fill="#5c5c5c"/>
    </g>
  </g>
</svg>
