<svg xmlns="http://www.w3.org/2000/svg" width="875.05" height="933.802" viewBox="0 0 875.05 933.802"><defs><style>.a{fill:#96ca41;}</style></defs><path class="a" d="M562.444,604.335c5.128-2.8,10.935-3.523,16.339-5.465,2.707-.974,5.437-1.91,8.057-3.085,7.874-3.533,15.735-7.1,23.535-10.792a160.679,160.679,0,0,0,32.751-21.2c12.954-10.573,26.492-20.384,39.512-30.863,3.22-2.593,6.356-5.286,9.6-7.845,2.115-1.664,4.379-3.136,6.529-4.755a12.777,12.777,0,0,1,5.13-2.25c14.085-3.031,27.829-7.3,41.586-11.486a5.267,5.267,0,0,1,2.124-.319c-.267.189-.523.395-.8.563q-10.013,6.111-20.024,12.22c-4.674,2.866-9.35,5.73-13.969,8.677-5.457,3.478-10.855,7.044-16.278,10.575a118.893,118.893,0,0,0-26.478,23.956A237.51,237.51,0,0,0,646.242,597.2c-5.1,8.992-9.649,18.275-13.953,27.676-.858,1.869-1.947,3.633-2.933,5.445-.295.539-.6,1.074-.952,1.711.4.413.755.767,1.125,1.145a10.813,10.813,0,0,0,1.347-.492c20.535-11,40.724-22.551,59.347-36.668a171.835,171.835,0,0,0,23.293-21.584c5.553-6.112,10.886-12.442,16.04-18.9a327.223,327.223,0,0,0,25.473-36.768,49.953,49.953,0,0,1,5.48-7.314,75.122,75.122,0,0,0,5.567-7.6,17.737,17.737,0,0,1,9.128-7.186c3.818-1.32,7.566-2.811,11.512-3.785,1.717-.423,3.271-1.467,4.943-2.123q37.905-14.889,75.837-29.729c3.075-1.2,6.244-2.17,9.37-3.246-3.521,2.76-7.058,5.5-10.564,8.28q-19.23,15.243-36.953,32.208a260.884,260.884,0,0,0-23.11,25.195,167.938,167.938,0,0,0-11.2,15.828c-2.864,4.558-5.337,9.364-7.943,14.081-1.607,2.911-3.108,5.878-4.707,8.791q-5.391,9.8-10.829,19.575c-.348.624-.751,1.218-1.192,1.936-1.025.146-2.087.273-3.132.452-17.26,3-34.051,7.491-49.755,15.487a185.862,185.862,0,0,0-33.882,21.9c-7.912,6.5-16,12.777-24.009,19.154-.281.224-.547.462-.905.767.006.391.012.807.014,1.2.356.177.608.417.826.386a21.686,21.686,0,0,0,3.159-.572c7.253-2.128,14.6-3.82,21.973-5.467,10.538-2.357,20.781-5.781,31.063-9.023,6.427-2.024,12.751-4.371,19.1-6.623a121.6,121.6,0,0,0,14.567-6.362c6.966-3.549,13.953-7.05,20.637-11.13,1.91-1.165,3.962-2.113,5.984-3.09a117.608,117.608,0,0,0,14.317-8.061,107.978,107.978,0,0,1,18.578-9.773,13.3,13.3,0,0,1,1.69-.482c-.657.551-1.3,1.121-1.989,1.637-8.038,6.043-16.2,11.925-23.564,18.818a255.266,255.266,0,0,0-45.207,58.369,235.628,235.628,0,0,0-12.521,24.145c-1.42,3.3-2.693,6.659-4.048,9.985-.706,1.727-1.448,3.441-2.217,5.266.313.331.6.635.875.923.366-.1.7-.1.858-.26a34.3,34.3,0,0,1,2.807-2.886,100.71,100.71,0,0,1,8.215-6.078,181.924,181.924,0,0,0,53.139-51.64c2.988-4.387,5.819-8.844,8.394-13.487,4.029-7.261,6.879-15,9.846-22.717,1.93-5.024,4.09-9.969,6.383-14.838a29.034,29.034,0,0,1,7.568-9.369,6.778,6.778,0,0,1,1.857-1.039c6.547-2.738,13.137-5.378,19.648-8.205a86.938,86.938,0,0,0,8.376-4.326c9.828-5.614,19.612-11.3,29.427-16.941.814-.468,1.7-.812,2.551-1.2-.637.7-1.253,1.416-1.932,2.069a202.409,202.409,0,0,0-17.744,18.788c-2.925,3.639-5.787,7.341-8.441,11.179-3.419,4.949-6.737,9.979-9.851,15.127a168.405,168.405,0,0,0-10.709,21.731c-6.956,16.473-11.325,33.677-14.612,51.2-.944,5.028-2.109,10.017-3.193,15.019-.214.968-.559,1.928.673,2.7.344-.23.826-.38,1.019-.7,3.889-6.647,9.1-12.234,14.386-17.73,5.98-6.208,12.255-12.137,18.115-18.45,4.208-4.536,8.075-9.4,11.852-14.307,4.056-5.264,7.989-10.636,11.675-16.164,3.635-5.453,6.96-11.118,10.282-16.772,2.095-3.559,3.922-7.273,5.884-10.91a132.531,132.531,0,0,0,9.651-22.791c2.264-7.1,4.585-14.183,6.844-21.286.571-1.794.968-3.643,1.5-5.449,1.328-4.473,2.691-8.935,4.05-13.4a8.371,8.371,0,0,1,3.37-4.387,146.509,146.509,0,0,1,13.438-8.478c3.653-2.091,7.107-4.548,10.544-6.985,7.257-5.14,14.535-10.253,21.641-15.594,7.76-5.835,15.859-11.173,23.909-16.583,2.8-1.883,5.856-3.4,8.8-5.083q-3.045,3.185-6.09,6.37A165.32,165.32,0,0,0,968.5,499.156c-3.987,5.874-8.022,11.72-11.85,17.694a175.07,175.07,0,0,0-13.353,24.322,102.353,102.353,0,0,0-6.474,21.09,229.3,229.3,0,0,0-3.716,56.361c.395,7.81.858,15.619,1.316,23.425a13.2,13.2,0,0,0,.364,1.885,1.408,1.408,0,0,0,1.9-.927c.545-1.135,1.084-2.272,1.593-3.423a77.589,77.589,0,0,1,9.12-14.913c5-6.7,10.416-13.078,14.82-20.212,2.313-3.747,4.944-7.3,7.17-11.093,5.506-9.381,10.888-18.845,14.889-28.992,5.98-15.165,10.884-30.648,13.087-46.869.484-3.557.677-7.156.986-10.737.781-9.133,1.515-18.269,2.357-27.4a33.7,33.7,0,0,1,1.133-5.534c.665-2.516,1.446-5.006,2.219-7.493.264-.842.655-1.646.972-2.429l22.28-11.809a15.711,15.711,0,0,1-.95,1.595,82.967,82.967,0,0,0-10.353,16.678,173.128,173.128,0,0,0-13.349,40.6,124.477,124.477,0,0,0-.98,41.056A171.167,171.167,0,0,0,1007.6,578.6q7.148,23.9,14.384,47.782c1.332,4.385,2.874,8.707,4.408,13.028.531,1.5,1.064,3.075,2.6,4.121.456-.067.964-.136,1.654-.238.374-.991.83-1.961,1.113-2.978.651-2.337,1.263-4.686,1.81-7.05,2.663-11.468,5.394-22.919,7.92-34.417,3.986-18.149,6.265-36.5,5.626-55.119a183.7,183.7,0,0,0-9.275-51.864c-1.867-5.63-3.584-11.313-5.292-17a67.072,67.072,0,0,1-2.656-13.2,21.832,21.832,0,0,1,.83-9.065,25.55,25.55,0,0,1,1.312-2.8,84.7,84.7,0,0,0,15.416-4.617,9.534,9.534,0,0,1,1.29-.395,85.877,85.877,0,0,0,21.475-8.563,15.551,15.551,0,0,1,2.447-1.127c6.739-2.233,13.215-5.225,20.112-7.011a23.589,23.589,0,0,0,4.29-1.595,51.206,51.206,0,0,1,9.088-3.376,14.262,14.262,0,0,0,1.544-.482c8.775-3.36,17.936-5.264,27.1-7.088a448.554,448.554,0,0,1,46.92-7.088c5.455-.5,10.937-.856,16.41-.974,9.436-.207,18.877-.2,28.315-.236a108.755,108.755,0,0,1,19.313,1.725c7.084,1.251,14.049,3.018,21.013,4.833,7.558,1.969,15.226,3.539,22.86,5.207,6.936,1.515,13.9,2.89,20.836,4.406,4.652,1.017,9.271,2.178,13.91,3.258a16.723,16.723,0,0,0,2.125.348,2.715,2.715,0,0,0,2.549-.84,2.193,2.193,0,0,0-.2-2.445c-1.226-1.682-2.565-3.256-4.654-3.919-.258-.081-.507-.193-.765-.264-6.85-1.855-13.666-3.86-20.561-5.522-8.386-2.022-16.843-3.753-25.266-5.608-1.405-.309-2.8-.7-4.22-.889-9.7-1.32-19.325-3.236-29.118-3.883-2.418-.159-4.831-.492-7.227-.879-11.286-1.82-22.7-2.431-34.065-3.431-8.244-.726-16.491-1.161-24.774-1.178-8.539-.016-17.085-.533-25.61-.285-15.729.458-31.451,1.07-47.131,2.467-1.792.159-3.594.22-5.38.421a16.962,16.962,0,0,1-10.164-1.9c-5.618-3.027-11.315-5.913-16.855-9.076-12.21-6.977-22.63-16.137-32.161-26.425q-13.741-14.822-27.863-29.3a78.463,78.463,0,0,0-19.347-14.061c-4.666-2.516-9.45-4.816-14.187-7.2a203.817,203.817,0,0,0-20.7-8.488c-5.046-1.885-10.168-3.592-15.271-5.327a24.669,24.669,0,0,0-3.913-.972,3.174,3.174,0,0,0-3.2.948c-.563,1.3.183,2.282.856,3.216,1.526,2.115,3.083,4.206,4.7,6.254q16.347,20.756,31.8,42.195c4.788,6.631,9.592,13.259,15.5,18.979,5.555,5.384,11.223,10.632,18.009,14.5a114.352,114.352,0,0,0,38.4,13.652,238.624,238.624,0,0,0,25.48,2.437c4.487.248,8.97.565,13.453.891a11.229,11.229,0,0,1,1.941.454,37.932,37.932,0,0,1-4.123.448c-11.028.083-21.808,2.136-32.615,4.044-8.138,1.438-16.215,3.177-24.479,3.98a214.277,214.277,0,0,0-26.13,3.83,93.816,93.816,0,0,0-9.615,2.63,25.611,25.611,0,0,1-8.736,1.367,62.383,62.383,0,0,1-18.334-2.705c-3.995-1.292-8.134-2.146-12.112-3.484a83.272,83.272,0,0,1-9.692-4.031c-3.964-1.918-7.808-4.076-11.691-6.161a228.568,228.568,0,0,1-29.043-18.1c-3.881-2.907-7.884-5.669-11.966-8.288a114.017,114.017,0,0,0-35.479-14.638c-7.078-1.686-14.224-3.1-21.342-4.631-.862-.185-1.766-.511-2.494.535-.1,1.163.848,1.629,1.652,2.152a45.083,45.083,0,0,1,8.16,7.013c4.985,5.3,9.891,10.682,14.879,15.981,5.3,5.624,10.581,11.268,16.011,16.764,5.622,5.687,12.415,9.722,19.435,13.453,7.564,4.021,15.806,5.888,24.013,7.873,5.154,1.245,10.347,2.337,15.558,3.313a70.736,70.736,0,0,0,15.861.789c8.087-.319,16.133-1.157,24.17-2.13,1.432-.173,2.89-.114,4.336-.146-3.58.948-7.164,1.883-10.745,2.848q-10.544,2.84-21.076,5.707c-4.6,1.259-9.2,2.51-13.75,3.905a72.626,72.626,0,0,0-8.347,3.031c-5.994,2.665-11.921,5.484-17.842,8.311a6.533,6.533,0,0,1-3.919.555c-8.295-1.22-16.461-2.976-24.141-6.444-4.5-2.034-8.98-4.151-13.28-6.564a92.362,92.362,0,0,1-9.362-6.35c-9.488-6.993-18.137-15-27.1-22.618a246.623,246.623,0,0,0-21.139-16.27c-7.1-4.823-14.893-8.315-22.839-11.484a246.267,246.267,0,0,0-37.885-11.465c-2.807-.622-5.589-1.355-8.366-2.089a17.643,17.643,0,0,1-5.907-2.559,10.272,10.272,0,0,0-1.574-.742c-.427.419-.832.818-1.373,1.346a10.648,10.648,0,0,0,1.239,1.828c9.344,8.85,16.963,19.292,26.132,28.313,3.26,3.206,6.086,6.848,9.149,10.255a77.824,77.824,0,0,0,11.27,10.8c3.606,2.679,7.357,5.162,11.032,7.745A106.425,106.425,0,0,0,801.283,429.7a60.239,60.239,0,0,1,6.7,3.468c5.276,3.165,10.979,5.29,16.74,7.367,7.717,2.782,15.68,4.611,23.614,6.59a26.185,26.185,0,0,0,2.906.565c12.68,1.688,25.386,2.644,38.177,1.536a8.472,8.472,0,0,1,1.526.13,16.331,16.331,0,0,1-1.808,1.019c-3.061,1.3-6.118,2.606-9.214,3.822-8.528,3.354-17.057,6.718-25.624,9.981a220.977,220.977,0,0,1-24.225,7.369,51.827,51.827,0,0,1-11.388,1.873,37.409,37.409,0,0,1-12.509-1.582,167.231,167.231,0,0,1-20.72-7.633c-1.54-.726-3.047-1.544-4.513-2.408-10-5.878-19.738-12.161-29.4-18.572-7.04-4.666-14.25-9.08-21.422-13.544a79.235,79.235,0,0,0-32.334-11.254c-8.108-1.033-16.209-2.187-24.334-3.079-3.649-.4-7.349-.319-11.028-.413-.856-.02-1.8-.026-2.193,1.084.23.264.368.584.572.637,4.283,1.08,7.3,4.07,10.491,6.842,8.974,7.813,16.744,16.752,24.422,25.8a60.076,60.076,0,0,0,17.655,14.388q7.258,3.85,14.594,7.558a94.845,94.845,0,0,0,16.917,6.234c3.629,1.031,7.257,2.075,10.851,3.21a69.978,69.978,0,0,0,30.074,2.862,211.233,211.233,0,0,0,22.469-4.416c2.968-.694,5.964-1.273,8.947-1.908l.632-.018c-.189.092-.38.181-.576.273-3.419,1.576-6.808,3.23-10.269,4.713-5.614,2.408-11.274,4.709-16.919,7.044-.995.411-2.005.8-3.025,1.145q-9.055,3.091-18.121,6.159a4.954,4.954,0,0,1-1.027.321c-4.147.468-7.951,2.17-11.895,3.342s-7.833,2.6-11.74,3.917c-.256.087-.5.211-.756.287q-6.587,1.943-13.172,3.873a11.241,11.241,0,0,0-1.564.417c-4.4,2.024-9.163,2.441-13.835,3.3-2.644.486-5.26,1.147-7.9,1.662a28.877,28.877,0,0,1-10.965.488,6.365,6.365,0,0,0-2.673.069,7.549,7.549,0,0,1-4.5-.289,81,81,0,0,1-7.786-2.992,108.7,108.7,0,0,1-25.591-17.3,274.563,274.563,0,0,0-23.252-18.8,101.288,101.288,0,0,0-17.669-9.757,171.261,171.261,0,0,0-40.488-11.909c-2.917-.5-5.884-.72-8.821-1.137-6.4-.909-12.8-1.865-19.193-2.8a14.074,14.074,0,0,0-2.13-.3,9.732,9.732,0,0,0-1.981.482,9.223,9.223,0,0,0,.743,1.81,4.1,4.1,0,0,0,1.239,1.027c5.02,3.061,9.165,7.21,13.666,10.92,7.162,5.9,13.483,12.655,20.014,19.2a118.38,118.38,0,0,0,17.58,14.618c1.489,1,2.923,2.091,4.377,3.147,5.941,4.308,12.582,7.237,19.339,10a95,95,0,0,0,19.335,5.732,66,66,0,0,1,8.111,1.967,58.356,58.356,0,0,0,17.812,2.522c6.2-.043,12.4-.209,18.6-.291a23.6,23.6,0,0,1,2.471.191c-6.3,1.21-12.56,2.687-18.908,3.555-14.606,2-29.259,3.639-43.881,5.541a61.1,61.1,0,0,1-17.71-.706c-11.122-1.784-21.912-4.855-32.655-8.177q-11.328-3.5-22.8-6.509a119.075,119.075,0,0,0-13.213-2.612,359.177,359.177,0,0,0-48.386-3.332,179.358,179.358,0,0,0-22.315,1.574c-4.375.51-8.76.942-13.137,1.414a17.221,17.221,0,0,0-1.865.26,1.6,1.6,0,0,0-1.4,1.444c.122,1.127,1.06,1.347,1.885,1.66,7.4,2.778,14.73,5.774,22.233,8.252,7.839,2.6,15.845,4.711,23.781,7,4.143,1.2,8.309,2.315,12.456,3.5a156.461,156.461,0,0,0,40.393,6.2c12.139.212,24.269-.1,36.282-2.254,6.016-1.076,12.072-1.936,18.08-3.053,2.732-.509,5.384-1.42,8.083-2.109a19.22,19.22,0,0,1,2.9-.529c3.49-.338,6.993-.539,10.471-.946q19.151-2.258,38.285-4.627c2.323-.285,4.627-.7,6.94-1a22.827,22.827,0,0,1,2.3-.1c-.846.429-1.666.915-2.547,1.269-13.172,5.313-26.383,10.538-39.524,15.926a129.213,129.213,0,0,0-35.214,21.18,166.453,166.453,0,0,0-24.261,25.2c-3.391,4.418-6.716,8.888-10.066,13.339-.474.635-1.127,1.208-.879,2.152a1.227,1.227,0,0,0,1.816.574M511.2,531.689a20.1,20.1,0,0,1,2.738.146c11.349,1.963,22.831,2.575,34.3,3.36,7.554.517,15.066-.236,22.593-.736,6.088-.407,12.2-.492,18.3-.694a7.843,7.843,0,0,1,1.479.2c-1.528.372-3.043.812-4.591,1.09a178.89,178.89,0,0,1-24.381,2.256,173.52,173.52,0,0,1-40.982-3.25c-3.181-.628-6.3-1.562-9.454-2.368m-24.249-8.583a113.85,113.85,0,0,0,25.12,4.558c6.179.423,12.336,1.129,18.5,1.763,3.126.321,6.238.8,9.36,1.143,7.585.836,15.18,1.623,22.762,2.461a24.714,24.714,0,0,1,2.762.6,7.472,7.472,0,0,1-1.21.262,122.651,122.651,0,0,1-16.154.222c-14.986-.9-29.859-2.8-44.721-4.833-1.688-.23-3.37-.555-5.028-.946a255.67,255.67,0,0,1-34.777-10.511c-2.581-1.013-5.124-2.115-7.682-3.177a2.3,2.3,0,0,1,1.564-.041c9.84,2.815,19.705,5.549,29.507,8.494m13.813-6.446c5.042.879,10.113,1.591,15.149,2.483,17.864,3.171,35.834,5.577,53.841,7.768a107.919,107.919,0,0,1,17.856,3.879q.583.052,1.161.108c-.089.148-.177.3-.264.443.279.189.563.374.848.559-.374-.043-.742-.081-1.113-.124a3.236,3.236,0,0,1-.753.248c-7.7.594-15.387,1.346-23.13.356-8.732-1.115-17.494-1.987-26.242-2.982-1.784-.2-3.57-.423-5.337-.742a163.147,163.147,0,0,0-21.428-2.24A74.192,74.192,0,0,1,495.36,524.2c-8.494-2.3-16.908-4.9-25.343-7.4a10.984,10.984,0,0,1-1.82-.873c1.2.152,2.408.271,3.6.478,6.977,1.22,13.922,2.638,20.93,3.665,15.527,2.274,31.083,4.363,46.633,6.507a23.2,23.2,0,0,0,2.634.075,22.942,22.942,0,0,0-2.815-.791c-13.316-2-26.615-4.153-39.966-5.9-12.12-1.595-24.05-4.221-36.113-6.1a16.812,16.812,0,0,1-1.979-.624,11.555,11.555,0,0,1,1.322-.22c.81,0,1.617,0,2.424.055,12.013.722,24.015,1.513,35.9,3.592m78.127,7.465c-.765-.077-1.538-.1-2.286-.254-2.378-.478-4.741-1.027-7.117-1.515-17.083-3.509-34.311-6.181-51.588-8.53-3.919-.537-7.843-1.111-11.779-1.351-8.345-.5-16.7-.8-25.05-1.19-.751-.037-1.5-.171-2.242-.269a26.576,26.576,0,0,1,2.756-.48,198.947,198.947,0,0,1,34.144.415c10,.911,19.955,2.4,29.883,3.93,11.028,1.7,21.572,5.341,32.177,8.7a6.773,6.773,0,0,1,1.1.549m22.51,5.392a36.178,36.178,0,0,1-5.27.36,50.754,50.754,0,0,1-16.241-1.977,84.577,84.577,0,0,0-10.05-1.906c-9.259-1.275-18.532-2.422-27.794-3.629-.982-.126-1.957-.283-2.933-.443q-19.02-3.112-38.037-6.232a215.9,215.9,0,0,0-23.557-2.677,18.25,18.25,0,0,1-2.195-.356,15.257,15.257,0,0,1,2.469-.246q16.021.69,32.041,1.448c.718.032,1.434.12,2.146.222,15.119,2.158,30.29,3.98,45.3,6.852,11.561,2.211,23.092,4.552,34.641,6.82,3.153.618,6.322,1.178,9.48,1.763m75.1-109.015c.706.555,1.4,1.127,2.138,1.639a74.321,74.321,0,0,1,11.687,10.316c4.54,4.851,9.249,9.537,13.929,14.25a24.661,24.661,0,0,0,3.484,2.959,172.363,172.363,0,0,0,20.295,11.7,105.652,105.652,0,0,0,15.562,6.014c6.673,2.146,13.359,4.237,20.376,4.941,8.044.8,16.1,1.464,24.137,2.343,4.141.456,8.242,1.243,12.363,1.885a19.346,19.346,0,0,1-2.469.492q-7.929.665-15.861,1.245a29.217,29.217,0,0,1-3.5.114,127.682,127.682,0,0,1-27.416-4.021c-3.472-.927-6.926-1.928-10.373-2.945a93.733,93.733,0,0,1-22.774-9.6c-2.809-1.723-5.573-3.523-8.355-5.288a2.443,2.443,0,0,0,.508.83,81.257,81.257,0,0,0,14.649,8.982,150.017,150.017,0,0,0,19.191,7.013,132.508,132.508,0,0,0,32.214,5.956,34.68,34.68,0,0,0,4.573.065c7.519-.543,15.035-1.166,22.552-1.737.9-.069,1.8-.035,2.7-.035a163.1,163.1,0,0,1-23.627,4.314,65.82,65.82,0,0,1-25.071-2.254c-4.737-1.406-9.5-2.7-14.25-4.058a94.282,94.282,0,0,1-20.966-8.378c-4.76-2.713-9.381-5.663-14.053-8.533a53.976,53.976,0,0,1-11.872-10.475c-4.947-5.569-9.72-11.3-14.818-16.729-4.66-4.965-9.462-9.836-15.269-13.544a4.2,4.2,0,0,1-.683-.7c.151-.175.2-.289.252-.289a16.621,16.621,0,0,1,10.75,3.529m29.7,2.809c3.934,1.961,7.932,3.793,11.915,5.656,2.929,1.371,5.925,2.6,8.795,4.078,5.183,2.673,10.3,5.473,15.432,8.252,1.023.553,1.983,1.229,2.957,1.875,2.095,1.389,4.145,2.844,6.273,4.18,1.517.954,3.157,1.711,4.69,2.644,6.523,3.972,13.019,7.989,19.544,11.962,1.377.838,2.819,1.578,4.253,2.321,2.705,1.4,5.425,2.76,8.136,4.139a2.027,2.027,0,0,1-1.261.01,125.07,125.07,0,0,1-18.938-7.717c-8.518-4.45-16.931-9.094-25.4-13.632-2.453-1.314-4.951-2.542-7.422-3.828q-5.849-3.045-11.683-6.118c-.956-.5-1.873-1.072-2.821-1.584-4.737-2.563-9.458-5.152-14.228-7.66a56.122,56.122,0,0,0-6.572-3.084c-3.366-1.241-6.82-2.235-10.239-3.319-3.205-1.013-6.413-2.01-9.617-3.012a6.961,6.961,0,0,1,1.2-.02c5.61.732,11.215,1.495,16.829,2.213a25.46,25.46,0,0,1,8.156,2.644M745.013,441.8c.661.413,1.326.822,1.993,1.233-3.667-1.774-7.235-3.663-10.739-5.669a186.092,186.092,0,0,0-20.433-10.276c-2.719-1.141-5.3-2.591-7.953-3.9.081-.157.161-.309.242-.464.517.118,1.039.22,1.552.356a66.244,66.244,0,0,1,16.778,7.227c6.256,3.708,12.379,7.652,18.56,11.492m62.2,33.182c-.313.205-.628.413-.942.616-.4-.03-.8-.065-1.2-.1l0-.008c-1.676-.238-3.342-.553-5.028-.7a167.114,167.114,0,0,1-31.514-5.484c-7.257-2.083-14.329-4.658-21.411-7.235a95.057,95.057,0,0,1-18.615-9c-2.728-1.737-5.449-3.482-8.183-5.211-.559-.352-1.165-.641-1.751-.958a3.469,3.469,0,0,0,1.34,1.328c3.114,1.967,6.275,3.856,9.334,5.9a74.439,74.439,0,0,0,14.352,7.351c9.688,3.787,19.412,7.513,29.547,10.009,1.265.309,2.488.81,3.722,1.231a3.462,3.462,0,0,1-.954.14c-7.6-.747-15.257-1.2-22.624-3.389-5.768-1.708-11.527-3.5-17.148-5.62a142.706,142.706,0,0,1-26.973-14.04,16.182,16.182,0,0,1-2.121-1.658,184.722,184.722,0,0,1-15.875-16.123,55.68,55.68,0,0,0-9.387-8.862c-1.5-1.1-2.866-2.4-4.294-3.612a11.4,11.4,0,0,1,3.669.781c5.154,1.859,10.351,3.594,15.151,6.328,4.764,2.713,9.617,5.264,14.392,7.963a66.536,66.536,0,0,1,6.393,4.009,169.406,169.406,0,0,0,14.976,10.086c5.058,2.915,10.095,5.866,15.167,8.76a9.568,9.568,0,0,0,2,.628c-3.1-1.812-6.124-3.767-9.314-5.4a107.267,107.267,0,0,1-13.459-8.392c-5.7-4.072-11.213-8.384-17.4-11.732-5.591-3.033-11.124-6.171-17.043-9.466,1.043.24,1.717.368,2.376.545a54.717,54.717,0,0,1,11.425,4.692c5.791,3.059,11.5,6.261,17.268,9.368,6.082,3.279,12.181,6.513,18.271,9.769,6.409,3.425,12.912,6.69,19.2,10.32a130.042,130.042,0,0,0,18.892,9.1c2.294.868,4.558,1.822,6.832,2.742q-1.742-.134-3.486-.264a25.944,25.944,0,0,0,3.509,1.249c5.425,1.119,10.872,2.132,16.3,3.222,1.546.309,3.067.738,4.6,1.115m518.341-50.438c-.006-.11-.014-.218-.025-.325.3-.1.6-.191.927-.3.059.305.073.384.089.466-.041.065-.079.128-.171.266-.25-.033-.537-.073-.822-.11m-6.582-2.486a7.03,7.03,0,0,1,4.792,1.125,10.454,10.454,0,0,1-4.792-1.125m-34.793-10.009c-3.25-.008-6.281-1.149-9.4-1.829a3.582,3.582,0,0,1-.816-.492,3.022,3.022,0,0,1,.889-.106c3.108.8,6.216,1.615,9.324,2.427m-19.447-1.656a13.884,13.884,0,0,1,2.823.323q18.3,3.8,36.6,7.619c1,.207,1.967.578,2.947.885a5.614,5.614,0,0,1-1.2,0c-6.179-1.084-12.367-2.132-18.529-3.305-4.754-.905-9.468-2-14.207-2.957a37.888,37.888,0,0,1-8.431-2.565m-234.561,68.555c1.007,7.383,1.985,14.775,2.26,22.237.1,2.87.325,5.742.637,8.6a117.888,117.888,0,0,1,.5,17.754c-.1,2.6-.23,5.2-.22,7.808.043,11.581-.026,23.163-.484,34.74-.618,15.7-1.013,31.411-2.211,47.08-.077,1.015-.321,2.016-.5,3.022a6.573,6.573,0,0,1-.228-1.17c-.3-9.613-.336-19.227-.187-28.844.041-2.424.073-4.855.226-7.276a86.224,86.224,0,0,0-.271-12.657c-.321-3.844-.525-7.711-.576-11.569-.12-9.07-.856-18.139-.055-27.213a27.947,27.947,0,0,0-.043-4.042,151.208,151.208,0,0,1,.392-20.474,61.674,61.674,0,0,0,.043-6.2c-.063-2.966-.173-5.931-.3-8.9a11.123,11.123,0,0,0-.358-1.772,27.354,27.354,0,0,0-.342,3.948,149.82,149.82,0,0,1-.366,20.4,76.207,76.207,0,0,0-.094,8.323c.136,5.372.232,10.737-.114,16.115-.209,3.3.041,6.621.1,9.932.1,5.193.226,10.385.327,15.578a2.874,2.874,0,0,1-.207.771,1.692,1.692,0,0,1,.232.472,84.68,84.68,0,0,1,.8,17.146,11.961,11.961,0,0,1-.354,1.7,8.675,8.675,0,0,1-.277-1.44q-.339-8.021-.622-16.05a12.155,12.155,0,0,1,.209-1.828,14.019,14.019,0,0,1-.4-2.075c-.7-14.8-1.422-29.606-2.046-44.412-.167-3.944-.094-7.9-.034-11.852.108-6.824.3-13.646.423-20.47a19.18,19.18,0,0,0-.295-2.6,26.284,26.284,0,0,0-.437,3.145c-.2,6.728-.392,13.457-.508,20.187-.073,4.216-.128,8.439,0,12.651.26,8.526.624,17.045.995,25.567q1.263,29.326,2.567,58.651a19.4,19.4,0,0,1-.745,7.072c-.148-.84-.348-1.676-.419-2.524-.541-6.629-.954-13.27-1.613-19.888-1.2-12.086-1.843-24.2-2.219-36.331-.456-14.643-.942-29.285-1.351-43.93-.1-3.411-.014-6.832.142-10.239.295-6.553.637-13.107,1.094-19.65.279-4.027.726-8.048,1.241-12.051a19.763,19.763,0,0,1,1.993-6.244,15.513,15.513,0,0,1,.311,1.741c.1,2.494.167,4.991.244,7.485l.549-.305c-.055.271-.081.421-.112.572l-.118,1.2c.222.34.437.679.659,1.019l.47.293a60.78,60.78,0,0,1,1.69,6.779M1026.5,614.852a156.547,156.547,0,0,1-3.081-16.62c-.787-5.689-1.8-11.343-2.66-17.022-.805-5.321-1.741-10.636-2.276-15.987-.791-7.949-1.324-15.922-1.865-23.893-.252-3.755-.356-7.532-.352-11.3.012-10.78.984-21.509,1.741-32.253a122.8,122.8,0,0,1,3.2-20.448c.264-1.092.675-2.15,1.025-3.222a4.7,4.7,0,0,1,.2,1.2c-.362,6.993-.793,13.984-1.115,20.978-.2,4.481-.388,8.97-.329,13.455.1,7.721.37,15.442.6,23.163.456,15.082.745,30.174,1.951,45.219.887,11.012,1.943,22.012,2.9,33.02.108,1.226.045,2.469.057,3.706m2.06-1.064c.7,2.809.258,5.671.329,8.5a5.346,5.346,0,0,1-.293,1.393,54.772,54.772,0,0,1-.6-5.648,25.654,25.654,0,0,1,.565-4.249m-1.224,19.483a2.982,2.982,0,0,1,.915,2.191Zm2.705,1.495c.081-1.21.191-2.42.22-3.629.024-.854-.069-1.711-.114-2.565h.008c.035-.4.065-.805.1-1.206l.008,0,.1-1.22-.47-.289c.043-.392.083-.785.126-1.178s.083-.773.122-1.159l.445.256a18.791,18.791,0,0,0,.413-2.095c.309-3.58.663-7.16.84-10.75.641-12.83,1.277-25.665,1.786-38.5.35-8.8.519-17.6.7-26.407.108-5.03.051-10.064.128-15.1.077-4.934.23-9.871.346-14.807-.4-4.139-.816-8.278-1.2-12.417a4.209,4.209,0,0,1,.155-1.037c-.063-.252-.126-.506-.187-.761.041-.378.081-.753.122-1.131l.441.254a22.369,22.369,0,0,0-.081-2.841c-.5-3.411-1.1-6.81-1.6-10.223a16.287,16.287,0,0,1-.026-2.463c1.521,4.6,3.081,9.2,4.536,13.825a46.024,46.024,0,0,1,.983,4.682,19.547,19.547,0,0,1,.989,2.445,216.338,216.338,0,0,1,4.558,23.234c2.054,14.5,1.609,28.99-.045,43.482a9.587,9.587,0,0,1-.468,1.674,6.656,6.656,0,0,1-.118-1.212c.718-10.965.067-21.92-.279-32.879a67.672,67.672,0,0,0-1.589-12.01c-.622-2.9-1.1-5.827-1.509-8.765-.421-3.024-.653-6.075-1.027-9.108a19.413,19.413,0,0,0-.649-2.534,4.488,4.488,0,0,0-.279,1.273c.539,6.35.925,12.723,2.382,18.957a64.239,64.239,0,0,1,1.676,12.525c.171,5.028.279,10.056.48,15.078.508,12.963-.614,25.833-2.148,38.678a23.943,23.943,0,0,1-1.823,7.42c-.008-.669-.061-1.338-.006-2,.384-4.827.866-9.647,1.19-14.48a253.876,253.876,0,0,0,.323-32.537c-.944-15.232-2.854-30.369-4.269-45.553a17,17,0,0,0-.628-2.546c-.035.875-.13,1.751-.088,2.62.124,2.77.3,5.537.46,8.3.33,2.488.643,4.979.991,7.461,1.631,11.671,2.083,23.437,2.829,35.175.622,9.7-.14,19.39-.74,29.072a162.7,162.7,0,0,1-2.2,19.522c-.9,4.855-1.6,9.745-2.51,14.6-.645,3.438-1.448,6.846-2.27,10.249a15.2,15.2,0,0,1-1.137,2.624m-15.8-155.889a23.145,23.145,0,0,1-1.4,5.2,79.308,79.308,0,0,0-5.282,23.806,135.075,135.075,0,0,1-1.619,13.628,67.306,67.306,0,0,0-.8,12.076q.375,12.79.74,25.581a4.676,4.676,0,0,1-.13.952,21.905,21.905,0,0,1-.785-2.728c-.584-3.543-1.167-7.09-1.613-10.654a113.1,113.1,0,0,1,1.22-36.459,173.3,173.3,0,0,1,8.3-28.109c.425-1.109.911-2.195,1.369-3.291m10.792-19.632c-.708,2.964-1.218,5.7-2.014,8.354a149.919,149.919,0,0,0-6.191,34.651c-.37,6.454-.86,12.9-1.2,19.359a174.236,174.236,0,0,0,.356,23.157q.6,7.386,1.06,14.785a171.48,171.48,0,0,0,2.547,21.123c.913,4.853,1.816,9.72,2.406,14.622a203.03,203.03,0,0,0,3.852,21.747c.856,3.667,1.355,7.418,1.967,11.14a10.942,10.942,0,0,1-.041,2.06,11.484,11.484,0,0,1-.759-1.652c-1.526-5.172-3.193-10.308-4.487-15.539-2.949-11.952-5.7-23.952-8.559-35.928a18.448,18.448,0,0,0-.826-2.211,21,21,0,0,0,.258,3.132c2.231,9.7,4.517,19.382,6.765,29.078.21.893.3,1.814.433,2.724a17.7,17.7,0,0,1-1-2.25c-2.968-9.527-5.789-19.1-8.888-28.587a94.532,94.532,0,0,1-4.2-25.73c-.271-6.643-.4-13.3-.462-19.947a87.672,87.672,0,0,1,.407-9.415c.708-7.153,1.6-14.285,2.363-21.43a46.614,46.614,0,0,1,1.908-9.765q3.4-10.218,6.84-20.423c.6-1.772,1.3-3.507,1.961-5.258a4.27,4.27,0,0,1-.148,2.368c-1.088,3.8-2.213,7.585-3.26,11.392a15.872,15.872,0,0,0-.291,2.6c.376-1,.805-1.983,1.107-3,1.59-5.331,3.126-10.676,4.731-16a10.257,10.257,0,0,1,3.358-5.15M743.364,379.7c2.923,2.569,5.817,5.17,8.781,7.692,1.568,1.336,3.325,2.455,4.894,3.8A241.4,241.4,0,0,1,779,412.259c1.747,1.922,3.519,3.828,5.278,5.742a92.21,92.21,0,0,1-8.724-5.418c-1.843-1.279-3.625-2.663-5.335-4.115a122.356,122.356,0,0,1-12.305-12.446c-2.923-3.291-5.927-6.507-8.907-9.747-1.4-1.521-2.848-3-4.216-4.542a18.67,18.67,0,0,1-1.424-2.036m-5.935-6.846a5.991,5.991,0,0,1,2.41,3.26q-1.2-1.629-2.41-3.26m30.491,14.04a157.412,157.412,0,0,1,18.216,13.422c5.036,4.336,10.2,8.522,15.287,12.808,3.089,2.606,5.854,5.583,9.267,7.81,4.062,2.652,8.036,5.447,12.155,8.012,6.175,3.846,12.208,7.951,18.871,10.959,1.048.476,2.109.921,3.163,1.383l-.073.226c-.759-.181-1.54-.3-2.276-.549-3.568-1.222-7.115-2.5-10.682-3.722a111.545,111.545,0,0,1-17.108-7.886c-8.126-4.416-15.074-10.4-21.985-16.408-5.079-4.418-9.92-9.108-14.913-13.626-4.723-4.271-9.023-9.017-14.315-12.655-2.884-1.979-5.642-4.147-8.476-6.2-.777-.563-1.627-1.019-2.445-1.523a10.319,10.319,0,0,1,2.518,1.037c4.278,2.278,8.718,4.312,12.8,6.909m-32.657-20.844a170.383,170.383,0,0,1,31.974,14.474c10.257,5.886,20.307,12.192,30.273,18.554a340.66,340.66,0,0,1,28.439,20.273c8.876,7.037,17.86,13.593,28.465,17.791,9.4,3.722,19.3,5.937,29.183,8.012a1.579,1.579,0,0,1,.155.287c-.423-.028-.846-.073-1.269-.112a1.029,1.029,0,0,0-.3-.132q-7.725-1.553-15.45-3.09c-1.192-.236-2.374-.681-3.58-.8a19.789,19.789,0,0,1-2.355-.167,54.514,54.514,0,0,1-7.518-2.589,115.2,115.2,0,0,1-14.411-6.633c-7.007-3.854-14.1-7.554-20.8-11.929a25,25,0,0,1-3.458-2.561c-3.553-3.3-7.025-6.684-10.544-10.017a48.177,48.177,0,0,0-3.791-3.421,129.3,129.3,0,0,0-13.939-9.2c-3.812-2.2-7.5-4.623-11.319-6.8-4.833-2.756-9.755-5.351-14.624-8.04-3.38-1.867-6.759-3.736-10.089-5.683-1.542-.9-2.963-2-4.446-3a9.052,9.052,0,0,0-1.383-.828c-2.307-.995-4.633-1.944-6.946-2.935-.962-.413-1.9-.889-2.845-1.336a3.163,3.163,0,0,1,.578-.118m12.576,7.9c4.676,2.416,9.533,4.507,13.733,7.764-4.548-2.644-9.564-4.456-13.733-7.764M849.12,427.131c4.127,3.027,8.217,6.128,12.871,8.364a33.546,33.546,0,0,1,2.976,1.818,5.429,5.429,0,0,1-1.875-.376,64.693,64.693,0,0,1-16.1-8.644c-4.82-3.6-9.688-7.123-14.165-11.177-5.2-4.7-10.662-9.094-15.9-13.748A154.519,154.519,0,0,0,797.54,388.84c-7.761-4.973-16.349-8.284-24.867-11.622-7.184-2.815-14.622-4.975-21.94-7.436-1.377-.464-2.734-.974-4.1-1.464.645.089,1.3.148,1.93.3a211.009,211.009,0,0,1,27.269,8.459,129.966,129.966,0,0,1,23.053,11.067,191.857,191.857,0,0,1,18.7,13.7c10.442,8.522,20.667,17.313,31.539,25.294m27.935,15.58c-9.265-2.085-18.45-4.576-27.068-8.612C839.5,429.183,830.7,421.666,821.6,414.639c-9.244-7.139-19.022-13.544-28.923-19.729-9.7-6.061-19.406-12.2-29.458-17.667a150.817,150.817,0,0,0-17.8-8.248c8.419,2.76,16.858,5.455,25.195,8.445,5.479,1.967,10.754,4.528,16.107,6.857a69.291,69.291,0,0,1,12.326,6.619c4.554,3.2,9,6.564,13.416,9.948,1.851,1.414,3.509,3.079,5.278,4.6,5.034,4.336,10.158,8.573,15.1,13.017a189.351,189.351,0,0,0,15.977,12.354c5.506,3.98,11.828,6.4,18.23,8.561,3.334,1.121,6.672,2.213,10.013,3.313m12.8,4.107a19.031,19.031,0,0,1-2.949.33c-3.2-.1-6.395-.327-9.59-.45a21.141,21.141,0,0,0-2.6.211c.287.181.58.36.867.545-.374-.037-.755-.077-1.131-.114a22.62,22.62,0,0,1-2.912.144c-4.029-.3-8.067-.559-12.076-1.035a159.947,159.947,0,0,1-30-6.362c-5.559-1.782-11.209-3.417-16.325-6.279-6.44-3.6-13.172-6.586-19.76-9.877a13.918,13.918,0,0,1-3.118-2.091c-2.522-2.292-5.093-4.564-7.39-7.074a215.417,215.417,0,0,0-19.636-19.575c-3.016-2.549-5.953-5.2-9.1-7.583a70.985,70.985,0,0,1-13.247-12.566,30.437,30.437,0,0,0-5.148-5.111c-.592-.466-1.188-.928-1.782-1.391a1.159,1.159,0,0,1,.848.153c8.732,5.673,18.011,10.507,26.238,16.959,3.1,2.437,6.2,4.886,9.169,7.485,3.169,2.778,6.187,5.732,9.256,8.622,5.815,5.48,11.5,11.093,17.773,16.066,3.161,2.51,6.218,5.181,9.552,7.44A115.621,115.621,0,0,0,833.1,438.743c5.085,1.806,10.113,3.747,15.44,4.694,5.75,1.023,11.514,1.951,17.283,2.846,1.2.189,2.475.537,3.686-.112-.962-.214-1.914-.468-2.884-.635-1.853-.317-3.712-.614-5.569-.915a.278.278,0,0,0-.346-.059c-1.131-.185-2.262-.366-3.385-.576a61.921,61.921,0,0,1-22.024-8.362c-6.006-3.777-11.88-7.76-17.913-11.5a93.96,93.96,0,0,1-13.906-10.581c-4.633-4.237-9.649-8.055-14.338-12.238a201.907,201.907,0,0,0-21.479-16.225c-.572-.386-1.121-.8-1.682-1.208,3.464,1.747,6.911,3.49,10.233,5.445,4.568,2.685,9.128,5.4,13.53,8.349a143.754,143.754,0,0,1,12.137,8.927c3.293,2.752,6.137,6.041,9.271,8.994a40.977,40.977,0,0,0,5.4,4.424c3.665,2.424,7.412,4.741,11.236,6.905,5.315,3.008,10.707,5.878,16.1,8.728,10.735,5.663,22.457,7.912,34.283,9.781.134.022.276.029.415.047a43.051,43.051,0,0,0,7.627.547c.232.047.468.087.7.134.98.205,1.955.435,2.933.659m-48.425-80.1c2.838,2.113,5.8,4.076,8.459,6.389,4.194,3.649,8.144,7.577,12.259,11.325,4.039,3.686,7.436,8.059,11.992,11.195,1.033.708,2,1.526,2.969,2.323a62.863,62.863,0,0,0,14.974,9.474,157.507,157.507,0,0,0,29.139,9.531c6.934,1.485,13.886,2.9,20.826,4.345.315.065.63.144.946.218a.747.747,0,0,1-.789.443c-5.209-.081-10.418-.108-15.54-1.285q-11.16-2.569-22.331-5.058a78.172,78.172,0,0,1-20.427-8.209A71.129,71.129,0,0,1,866.347,393.7c-7.644-8.093-15.218-16.251-22.811-24.4-.757-.81-1.414-1.713-2.111-2.581m3.72.079c6.753,5.073,13.426,10.249,20.132,15.379,4.068,3.112,8.114,6.246,12.224,9.3,3.893,2.894,7.733,5.876,11.807,8.5a118.253,118.253,0,0,0,18.824,9.318c8.653,3.6,17.466,6.653,26.814,7.916,1.869.252,3.7.726,5.569,1,4,.6,8,1.123,12,1.7,1.631.234,3.258.519,4.89.781a21.9,21.9,0,0,1-9.989.6c-6.7-1.288-13.353-2.878-20.071-4.076a167.876,167.876,0,0,1-24.44-6.572c-8.931-3.022-17.333-6.964-24.654-13.005-4.086-3.37-8.351-6.535-11.823-10.6a40.339,40.339,0,0,0-3.454-3.4c-2.845-2.614-5.714-5.2-8.581-7.79-2.065-1.863-4.09-3.775-6.234-5.541-1.94-1.6-4.037-3-6.033-4.538-.974-.75-1.875-1.6-2.809-2.4a40.225,40.225,0,0,1,5.825,3.429m15.269,2.766c7.851,5.067,15.739,10.074,23.564,15.177A232.977,232.977,0,0,0,918.4,403.7c6.92,3,13.741,6.244,20.907,8.62,6.224,2.06,12.5,3.96,18.747,5.931.907.285,1.816.568,2.719.852a6.274,6.274,0,0,1-2.713.376,57.137,57.137,0,0,1-11.433-1.757,28.319,28.319,0,0,0-2.858-.452c.081.155.163.305.242.458l-.515-.014c-3.448-.578-6.916-1.047-10.333-1.759-3.863-.805-7.723-1.676-11.506-2.787a151.481,151.481,0,0,1-20.033-7.892,104.42,104.42,0,0,1-21.153-12.8c-6.932-5.42-13.937-10.745-20.95-16.058-3.8-2.872-7.755-5.528-11.5-8.461A61.223,61.223,0,0,0,836.4,360.7a19.643,19.643,0,0,1-1.9-1.159,5.742,5.742,0,0,1,3.2.472,167.038,167.038,0,0,1,20.755,11.425,66.751,66.751,0,0,1,6.242,4.237c4.058,3.26,8.016,6.643,11.956,10.048a76.57,76.57,0,0,0,10.973,8.231c1.7,1,3.511,1.816,5.233,2.776,4.078,2.272,8.118,4.623,12.216,6.857a47.3,47.3,0,0,0,6.08,2.886c9.255,3.435,18.5,6.907,27.973,9.73a18.142,18.142,0,0,0,2.585.4,19.582,19.582,0,0,0-2.166-1.043c-6.275-2.182-12.57-4.3-18.841-6.492-5.508-1.924-11.04-3.816-16.168-6.661-3.926-2.18-7.778-4.5-11.748-6.6a93.537,93.537,0,0,1-19.75-14.4,107.816,107.816,0,0,0-24.507-16.979c-.96-.486-1.9-1.019-2.831-1.564-.85-.492-1.676-1.027-2.512-1.542a94.676,94.676,0,0,1,17.228,8.246m13.735,2.5c3.828,2.819,7.406,5.97,11.146,8.909,3.531,2.77,7.078,5.524,10.729,8.134a163.714,163.714,0,0,0,14.915,9.157,69,69,0,0,0,6.751,3.352c4.125,1.763,8.347,3.3,12.458,5.087,3.692,1.607,7.292,3.411,10.933,5.134-2.036-.651-4.115-1.2-6.088-2.01-5.463-2.254-10.894-4.6-16.31-6.979s-10.719-5.012-15.887-7.9c-12.308-6.887-23.8-15.059-35.767-22.485a117.005,117.005,0,0,0-12.047-7.094c-2.329-1.088-4.6-2.3-6.9-3.462a68.847,68.847,0,0,1,26.069,10.162m98.375,47.369a13.694,13.694,0,0,1-6.429.077,63.134,63.134,0,0,1-11.065-3.352c-5.658-2.286-11.339-4.507-16.982-6.83-4.147-1.706-8.209-3.627-12.379-5.278a127.768,127.768,0,0,1-14.946-6.775,175.463,175.463,0,0,1-23.445-15.78c-5.571-4.375-10.739-9.273-16.77-12.987a97.176,97.176,0,0,1,21.365,11.47c4.93,3.61,9.85,7.235,14.889,10.682A284.571,284.571,0,0,0,932.752,406a111.944,111.944,0,0,0,30.306,10.918c3.051.643,6.039,1.593,9.466,2.514m47.174-7.137a2.947,2.947,0,0,1-.626.242c-6.411,1.3-12.82,2.638-19.254,3.838a45.819,45.819,0,0,1-5.587.374c-.085.014-.171.033-.256.049.083-.026.167-.049.25-.073a14.76,14.76,0,0,1,2.435-.968c4.888-1,9.765-2.056,14.687-2.848,2.748-.441,5.563-.431,8.351-.614m16.428-27.1a183.761,183.761,0,0,0,21.172,9.377c1.645.594,3.236,1.344,4.849,2.022a124.053,124.053,0,0,1-15.865-4.253c-8.425-2.923-16.339-7.044-24.153-11.28a219.661,219.661,0,0,1-31.248-20.631,109.162,109.162,0,0,1-19.721-20.582c-4.841-6.474-9.173-13.322-13.823-19.939-2.166-3.081-4.552-6.01-6.828-9.014-.783-1.035-1.538-2.091-2.3-3.136a37.022,37.022,0,0,1,3.427,2.4q4.479,3.878,8.832,7.908a76.292,76.292,0,0,1,13.231,15.206,81.246,81.246,0,0,0,7.873,10.253,105.392,105.392,0,0,0,9.525,9.515c6.448,5.718,12.643,11.71,19.815,16.591,8.181,5.571,16.386,11.048,25.219,15.562m-44.281-15.3c14.937,8.356,30.145,16.148,45.563,23.59a3.333,3.333,0,0,1-1.585-.1,116.256,116.256,0,0,1-20.756-7.387c-5.563-2.744-11.158-5.374-15.916-9.454a72.17,72.17,0,0,1-7.306-6.645m-41.009-52.279a48.066,48.066,0,0,1,7.284,8.844c.909,1.3,1.67,2.7,2.5,4.048a1.168,1.168,0,0,1-.948-.537c-2.679-3.566-5.364-7.129-8.014-10.717a10.366,10.366,0,0,1-.822-1.637m-1.613-2.227q.809,1.111,1.609,2.223a3.2,3.2,0,0,1-1.609-2.223M938.71,300.828a71.064,71.064,0,0,1,5.742,4.833,97.988,97.988,0,0,1,11.882,14.256c2.681,4.149,5.557,8.172,8.205,12.34a128.057,128.057,0,0,0,16.837,20.96,88.528,88.528,0,0,0,12.649,10.861c3.315,2.309,6.543,4.749,9.92,6.964,4.426,2.909,8.87,5.813,13.473,8.419,5,2.829,10.182,5.325,15.3,7.943a97.155,97.155,0,0,0,21.037,8.189,36.859,36.859,0,0,1,3.921,1.412,7.279,7.279,0,0,1-1.5.055c-2.664-.38-5.321-.852-7.989-1.2a31.1,31.1,0,0,1-9.9-3.346q-4.21-2.12-8.451-4.18c-4.682-2.262-9.58-4.086-13.992-6.92a34.986,34.986,0,0,0-5.736-2.974,82.11,82.11,0,0,1-11.728-6.027q-4.033-2.45-8.061-4.9a21.611,21.611,0,0,1-5.911-5.046c-3.539-4.528-7.155-9-10.595-13.6-2.089-2.8-3.942-5.779-5.846-8.716-3.318-5.126-6.578-10.286-9.889-15.417a22.388,22.388,0,0,0-1.788-2.359q-7.786-9.116-15.576-18.218a7,7,0,0,1-2-3.33m24.129,14.765c4.644,4.107,9.348,8.126,13.644,12.611,6.338,6.619,12.771,13.137,19.675,19.182,7.631,6.682,15.094,13.558,22.768,20.193a107.354,107.354,0,0,0,10.9,8.323c6.3,4.168,12.749,8.1,19.217,11.992a72.455,72.455,0,0,0,8.85,4.562c4.78,2.046,9.676,3.822,14.522,5.713a13.778,13.778,0,0,1-6.236-1.17c-3.281-1.222-6.509-2.6-9.8-3.8a159.374,159.374,0,0,1-26.564-12.446c-7.037-4.145-13.768-8.813-20.588-13.329a52.559,52.559,0,0,1-5.532-4.288q-6.6-5.763-13.066-11.659a103.275,103.275,0,0,1-17.106-20.024,54.2,54.2,0,0,0-5.817-7.406,136.172,136.172,0,0,0-20.891-18.6c-1.509-1.062-2.925-2.252-4.383-3.38a1.774,1.774,0,0,1,1.08.289c6.692,4.042,13.42,8.01,19.321,13.227m-.315-3.873c.468.273.919.568,1.359.875,1.839,1.29,3.7,2.555,5.5,3.893,3.387,2.514,6.9,4.894,10.078,7.652a445.425,445.425,0,0,1,33.278,32.6,110.679,110.679,0,0,0,19.28,16.31c3.051,2.054,6.254,3.881,9.383,5.819a257.7,257.7,0,0,0,23.317,12.93,65.948,65.948,0,0,0,11.181,4.646,46.835,46.835,0,0,1,5.783,2.412,13.66,13.66,0,0,1-6.427-.649c-3.9-1.344-7.812-2.679-11.653-4.186a85.9,85.9,0,0,1-13.683-6.311c-5.9-3.616-11.771-7.284-17.671-10.9a102.222,102.222,0,0,1-12.484-9.368c-4.385-3.7-8.659-7.55-12.875-11.443-7.131-6.574-14.342-13.07-21.221-19.9-6.755-6.71-13.339-13.579-20.708-19.636-3.954-3.25-7.8-6.625-12.2-9.293-1.678-1.015-3.226-2.243-4.835-3.374.051-.128.106-.258.159-.389.624.33,1.263.639,1.875.993q6.285,3.649,12.568,7.318m10.554,3.149a114.389,114.389,0,0,1,15.56,11.984c4.729,4.131,9.169,8.589,13.709,12.934,4.8,4.593,9.529,9.257,14.354,13.823,3.456,3.269,7.2,6.248,10.493,9.669a133.443,133.443,0,0,0,25.762,20.692c2.357,1.473,4.727,2.923,7.09,4.383-3.385-1.668-6.767-3.321-10-5.233-7.88-4.664-15.914-9.1-23.112-14.83-3.155-2.514-6.33-5.024-9.309-7.741-2.313-2.111-4.267-4.611-6.5-6.82-7.782-7.7-15.135-15.832-23.293-23.159-4.338-3.891-8.4-8.091-13.351-11.28-2.486-1.6-4.871-3.37-7.219-5.174a45.963,45.963,0,0,0-7.536-4.676c-1.977-.995-3.8-2.3-5.689-3.472l.232-.3c.34.092.69.155,1.019.277a105.468,105.468,0,0,1,17.785,8.927m17.978,7.3c3.144,2.681,6.326,5.321,9.4,8.085a74.909,74.909,0,0,1,9.177,9.088,156.479,156.479,0,0,0,26.775,26.832c6.509,5.093,13.046,10.147,19.569,15.222,1.2.938,2.335,1.975,3.6,2.827,4.172,2.815,8.382,5.571,12.588,8.335.972.641,1.979,1.231,2.972,1.843-.022.1-.049.205-.071.309-4.485-2.272-9.063-4.375-13.428-6.857-4.843-2.752-9.572-5.717-14.193-8.827a96.626,96.626,0,0,1-13.306-10.522c-2.646-2.561-5.246-5.176-7.953-7.67-5.217-4.808-10.528-9.513-15.491-14.6-4.637-4.759-9.525-9.275-14.283-13.92a145.749,145.749,0,0,0-24.855-19.742c-.305-.189-.582-.419-.873-.631a50.885,50.885,0,0,1,7.662,2.7,50.165,50.165,0,0,1,12.716,7.526m79.819,68.085q6.019,3.249,12.047,6.494c-4.686-.964-8.109-4.2-12.047-6.494m-37.342-32.33a13.977,13.977,0,0,1-3.948-4.3,14.424,14.424,0,0,1,3.948,4.3m21.023,20.964a22.406,22.406,0,0,1-2.913-1.916c-3.256-2.54-6.515-5.075-9.718-7.678-4.664-3.789-9.437-7.465-13.888-11.5A174.19,174.19,0,0,1,1010.723,339a45.185,45.185,0,0,0-4.3-4.808c-4.1-3.755-8.335-7.371-12.5-11.057-.494-.437-.917-.958-1.7-1.78a58.306,58.306,0,0,1,15.724,11.169c4.4,4.225,8.638,8.62,12.9,12.987,1.938,1.989,3.736,4.115,5.642,6.139q4.979,5.287,10.023,10.516a10.221,10.221,0,0,0,1.53,1.094l.047,0c.934.907,1.855,1.827,2.8,2.721q6.825,6.459,13.668,12.9m128.282,22.384a13.848,13.848,0,0,1,6.088-.037,79.115,79.115,0,0,1,14.48.909,37.825,37.825,0,0,1-4.833.23c-3.214-.208-6.411-.624-9.619-.954q-3.06-.073-6.116-.149m-93.617,25.958a11.284,11.284,0,0,1,5.414-1.664,10.275,10.275,0,0,1-5.414,1.664m-3.155,1.123a2.462,2.462,0,0,1,2.384-.942Zm-37.675,14.783a1.727,1.727,0,0,1,.547-.439q6.108-2.069,12.232-4.1a7.322,7.322,0,0,1-1.17.81,40.753,40.753,0,0,1-11.61,3.734M1007.5,460.985c2.945-2.807,6.635-4.227,10.369-5.561l1.684-.714a1.779,1.779,0,0,1-1.67.765q-4.961,2.743-9.932,5.482a.959.959,0,0,1-.452.029m-15.57,1.462a22.321,22.321,0,0,1-7.548,1.839c-3.4.256-6.8.637-10.2.864a85.391,85.391,0,0,1-9.143.372,228.268,228.268,0,0,1-25.227-2.066,69.55,69.55,0,0,0-21.735-.081c-2.661.435-5.331.785-8,1.172-.553.079-1.115.138-1.672.207a4.463,4.463,0,0,1,2.007-.942c12.5-3.161,25.205-3.759,37.982-2.856,7.353.521,14.7.9,22.069.781a17.885,17.885,0,0,0,2.575-.409,30.107,30.107,0,0,0-3.155-.317,146.277,146.277,0,0,1-17.763-.622,99.991,99.991,0,0,0-19.359-.549c-3.134.22-6.279.3-9.419.419a8.577,8.577,0,0,1-1.466-.163c1-.291,1.981-.633,3-.842a103.935,103.935,0,0,1,15.206-1.979,164.2,164.2,0,0,1,23.942.592c6.881.622,13.77,1.147,20.659,1.727a9.12,9.12,0,0,1,1.214.248c-.818.33-1.629.661-2.447.991a19.894,19.894,0,0,0,2.628.024c3.472-.409,6.936-.9,10.41-1.314a15.21,15.21,0,0,1,2.256.024c-2.27.954-4.558,1.873-6.808,2.88M898.865,472.57a3,3,0,0,0-2.717.23c-.547-.122-1.092-.248-1.637-.372a14.789,14.789,0,0,1,1.885-.86,59.159,59.159,0,0,1,11.091-1.94c2.842-.3,5.681-.722,8.5-1.22a54.111,54.111,0,0,1,13.091-.864c3.032.2,6.077.246,9.118.372,3.484.144,6.97.279,10.455.472a19.22,19.22,0,0,1,2.494.435,7.43,7.43,0,0,1-1.43.3c-5.915.228-11.828.413-17.736.641-2.955.116-5.913.242-8.862.458-4.65.34-9.293.744-13.933,1.157a19.459,19.459,0,0,0-2.319.478,11.67,11.67,0,0,0,1.839.224c3.141-.136,6.279-.319,9.415-.488,5.74-.309,11.472-.679,17.211-.917,7.448-.309,14.9-.531,22.351-.751a19.041,19.041,0,0,1,2.746.264c-.738.153-1.477.334-2.223.441-8.618,1.245-17.226,2.53-25.856,3.677a53.837,53.837,0,0,1-8.852.58c-8.16-.275-16.31-.773-24.463-1.2a12.394,12.394,0,0,1-1.656-.35l1.491-.765m-3.889-1.845a25.219,25.219,0,0,1,9.24-4c5.132-.925,10.28-1.721,15.43-2.516a62.9,62.9,0,0,1,18.808-.028c7.93,1.161,15.9,1.672,23.883,2.142.942.055,1.873.236,2.811.366a8.131,8.131,0,0,1-1.405.439,61.074,61.074,0,0,1-12.326.533c-4.292-.273-8.583-.435-12.879-.641-2.953-.138-5.913-.175-8.852-.421a51.579,51.579,0,0,0-13.9.822c-2.638.492-5.3.869-7.969,1.155a58.021,58.021,0,0,0-11.366,1.989,6.485,6.485,0,0,1-1.471.159m79.172-3.812a2.717,2.717,0,0,1,.946.2,2.907,2.907,0,0,1-.649.328c-5.056,1.324-10.227,1.446-15.4,1.523a1.745,1.745,0,0,1-.663-.234q7.884-.915,15.769-1.814M948.308,619.958c1.824-4.416,3.842-8.716,5.868-13.009,2.26-4.79,4.684-9.511,6.763-14.376,2.961-6.932,5.707-13.959,8.484-20.966,5.959-15.029,10.957-30.4,15.954-45.762,2.856-8.787,4.955-17.809,8.154-26.5,2.115-5.746,2.964-11.834,4.243-17.8.207-.972.508-1.922.775-2.882a115.535,115.535,0,0,1-1.955,18.574,13.006,13.006,0,0,0-.126,2.056h-.012a5.984,5.984,0,0,0-.6,1.184q-1.3,5.29-2.524,10.6a6.322,6.322,0,0,0,.022,1.542c.305-1.027.622-2.048.913-3.077.759-2.724,1.5-5.449,2.254-8.174a4.846,4.846,0,0,1,.177,1.2c-.271,4.3-.431,8.62-.885,12.905a148.334,148.334,0,0,1-6.332,28.638,198.667,198.667,0,0,1-12.257,31.038,244.708,244.708,0,0,1-14.358,24.389c-.028.045-.1.063-.268.163,2.117-4.678,4.314-9.2,6.232-13.841,3.291-7.967,6.637-15.9,10.286-23.72,4.338-9.3,7.446-19.06,10.326-28.893a16.4,16.4,0,0,0,.328-2.6c-.33.826-.7,1.637-.982,2.477-2.148,6.283-4.245,12.584-6.437,18.853-1.69,4.839-3.97,9.423-6.12,14.069-2.374,5.128-4.44,10.4-6.7,15.582-2.624,6.006-5.2,12.035-8.022,17.95a94.581,94.581,0,0,1-5.982,10.831c-2.166,3.338-4.792,6.379-7.219,9.552m-9.44,13.1c.429-1.294.712-2.213,1.035-3.118,2.117-5.911,4.7-11.64,6.578-17.659,2.3-7.363,5.044-14.592,7.723-21.831,2.239-6.063,4.6-12.08,7.017-18.076,1.774-4.416,3.72-8.758,5.563-13.146,2.927-6.952,5.8-13.927,8.754-20.865,2.852-6.694,5.52-13.453,7.91-20.331,3.183-9.155,6.488-18.269,9.777-27.389.561-1.552,1.31-3.037,1.975-4.548a1.434,1.434,0,0,1,.256,1.131,104.82,104.82,0,0,1-4.123,15.336c-1.218,3.279-2.248,6.635-3.248,9.989-1.157,3.871-2.064,7.821-3.295,11.665-2.378,7.444-4.788,14.88-7.408,22.239q-5.467,15.352-11.293,30.577c-2.447,6.368-5.16,12.637-7.912,18.879-2.25,5.093-4.831,10.04-7.09,15.129a120.14,120.14,0,0,1-12.22,22.018m55.045-146.2c-2.3,6.035-4.721,12.027-6.916,18.1-3.991,11.053-7.56,22.252-12.334,33.03q-7.679,17.354-14.671,35.013c-4.281,10.752-8.236,21.635-12.218,32.5-1.82,4.967-3.356,10.044-5.048,15.059a17.665,17.665,0,0,1-.913,1.922,2.153,2.153,0,0,1-.071-1.45c3.889-14.476,7.609-29,12.688-43.126,2.642-7.347,5.04-14.783,7.757-22.1,2.284-6.136,4.961-12.127,7.306-18.243a233.878,233.878,0,0,1,12.364-26.889c1.912-3.555,3.517-7.273,5.3-10.9,2.345-4.778,4.731-9.539,7.1-14.3a9.644,9.644,0,0,1-.344,1.383m-47.7,52.2a255.164,255.164,0,0,0-8.238,26.629,86.211,86.211,0,0,1,8.238-26.629m34.1-52.442a1.876,1.876,0,0,1-.4,1.355A144.622,144.622,0,0,0,969.638,507.5c-1.871,4.08-3.677,8.187-5.589,12.249-2.9,6.171-6.039,12.228-8.356,18.668-2.311,6.417-4.888,12.739-7.186,19.158-2.587,7.21-3.936,14.744-5.268,22.248-2.058,11.581-3.887,23.2-5.838,34.793-.175,1.045-.529,2.064-.8,3.1-.039.4-.079.812-.116,1.216a3.641,3.641,0,0,1-.443,2.768c-.13-.48-.254-.958-.385-1.44-.209.114-.425.23-.842.454a128.858,128.858,0,0,1-.317-16.032q.861-11.414,1.8-22.823c.163-1.967.437-3.928.793-5.868a222.078,222.078,0,0,1,9.568-35.011,106.971,106.971,0,0,1,11.471-23.378c1.694-2.542,3.374-5.091,5.124-7.595q6.007-8.607,12.088-17.165a6.01,6.01,0,0,1,.986-.893Zm14.366-14.71.234.232q-3.838,6.917-7.674,13.827A64.832,64.832,0,0,0,993.5,475.6a20.711,20.711,0,0,1,5.317-7.367c.185.165.325.289.462.4a34.875,34.875,0,0,0-2.282,5.783.626.626,0,0,0,.179.637q-1.12,2.749-2.13,5.536-4.055,8.476-8.195,16.908-4.967,10.153-10,20.275c-.952,1.934-2.036,3.808-2.866,5.793-3.525,8.441-7.212,16.829-10.412,25.4-4.424,11.848-8.547,23.81-12.641,35.776-4.332,12.663-7.379,25.691-10.672,38.646-.846,3.334-1.723,6.659-2.587,9.987a6.583,6.583,0,0,1,.008-1.416c.511-2.64,1.029-5.28,1.617-7.906,2.168-9.712,4.4-19.412,6.533-29.13,1.292-5.864,2.077-11.844,3.952-17.573,2.005-6.134,3.978-12.283,6.114-18.373,4.928-14.038,10.491-27.831,16.5-41.442.58-1.32.948-2.738,1.4-4.113a23.208,23.208,0,0,0-1.379,2.42c-2.477,5.669-5,11.321-7.349,17.043-4.6,11.209-9.031,22.481-12.857,33.986-2.008,6.049-4.212,12.033-5.547,18.283-2.174,10.186-4.29,20.384-6.517,30.556-1.023,4.672-2.24,9.3-3.379,13.941a14.52,14.52,0,0,1-.1-2.715c.94-6.852,1.892-13.7,2.939-20.541,1.845-12.084,3.781-24.151,6.59-36.056,1.111-4.713,2.376-9.411,3.928-14,1.93-5.7,4.273-11.248,6.354-16.894a145.434,145.434,0,0,1,6.086-14.093c2.262-4.589,4.306-9.287,6.405-13.955a169.62,169.62,0,0,1,11-21.3c1.1-1.745,2.286-3.45,3.307-5.246a47.645,47.645,0,0,1,9.84-11.712c.492-.441,1.033-.824,1.552-1.235m-7.308.108a5.432,5.432,0,0,1,.905-.844q5.4-3.286,10.839-6.515a3.745,3.745,0,0,1,1.139-.3c-2.548,1.739-5.044,3.57-7.67,5.18a50.362,50.362,0,0,1-5.213,2.477m-49.81,34.508c.7-.517,1.4-1.033,2.1-1.548a3.557,3.557,0,0,1-2.1,1.548m-10.17,7.064a107.271,107.271,0,0,1,8.84-6.513,4.073,4.073,0,0,1,1.078-.419c-2.817,2.077-5.624,4.164-8.453,6.22a8.87,8.87,0,0,1-1.464.712m-20.578,17.626c-.089-.618-.224-.9-.138-1.078.114-.238.4-.393.6-.584.1.088.207.173.309.26-.2.36-.4.718-.773,1.4M897.124,561.4c-1.812,3.71-3.741,7.373-5.384,11.158a113.564,113.564,0,0,1-8.183,15.153c-4.106,6.541-8.026,13.2-11.893,19.89a144.323,144.323,0,0,1-8.254,13.264q-3.661,5-7.271,10.034c-1.877,2.622-3.712,5.272-5.567,7.912-.1-.073-.208-.144-.315-.216,4.043-6.893,8.026-13.821,12.161-20.659,2.042-3.378,4.4-6.564,6.552-9.877q6.319-9.72,11.878-19.894c3.9-7.178,8.73-13.825,12.377-21.163,1.877-3.773,3.816-7.513,5.74-11.262.281-.545.645-1.052.968-1.576a29.561,29.561,0,0,1-2.809,7.237M838.48,657.263c2.85-4.528,6.049-8.75,9.21-13q4.912-6.59,9.751-13.229c1.639-2.252,3.159-4.583,4.768-6.854,1.4-1.979,2.982-3.846,4.251-5.9,2.117-3.439,3.995-7.023,6.069-10.487,3.84-6.4,7.648-12.816,11.661-19.1a106.638,106.638,0,0,0,8.136-14.876c1.119-2.583,2.522-5.046,3.806-7.56a17.234,17.234,0,0,1-.614,2.742c-1.837,4.776-3.443,9.674-5.7,14.25-3.685,7.491-7.692,14.834-11.785,22.117-5.425,9.653-11.952,18.586-18.562,27.451a196.4,196.4,0,0,1-13.794,16.9c-2.374,2.54-4.792,5.034-7.2,7.55m-12.511,11.431c1.43-2.406,2.968-4.721,4.538-7.011,3.763-5.478,7.9-10.693,11.15-16.526,3.98-7.141,7.987-14.272,12.171-21.3,4.363-7.339,8.9-14.575,13.451-21.8,3.545-5.626,7.271-11.136,10.841-16.748,2.026-3.181,3.926-6.448,5.837-9.7,2.6-4.412,5.195-8.821,7.7-13.286a69.185,69.185,0,0,0,4.147-8.154c2.473-6.216,6.122-11.781,9.641-17.451-.836,2.923-1.564,5.884-2.542,8.76a58.982,58.982,0,0,1-2.687,6.165c-2.006,4.212-3.871,8.506-6.147,12.57-4.037,7.21-8.345,14.272-12.529,21.4-1.731,2.945-3.411,5.919-5.148,8.856-1.879,3.167-3.745,6.346-5.724,9.452-4.151,6.517-8.435,12.948-12.545,19.494-5.636,8.982-11.156,18.037-16.74,27.054a18.389,18.389,0,0,1-1.43,1.957c-3.077,3.747-6.128,7.518-9.277,11.205a31.237,31.237,0,0,1-4.709,5.06m-.435-9.525a16.607,16.607,0,0,1,.388-1.772c1.658-4.934,3.224-9.9,5.026-14.783a152.795,152.795,0,0,1,8.705-19.984c1.623-3,3.21-6.023,4.865-9.008,3.258-5.89,6.456-11.821,9.877-17.62,2.005-3.395,4.393-6.562,6.61-9.834.655-.966,1.267-1.963,1.959-2.9,3.568-4.841,7.113-9.7,10.75-14.484,2.388-3.142,4.839-6.244,7.4-9.242,3.085-3.62,6.342-7.088,9.482-10.662,2.844-3.234,5.589-6.552,8.453-9.767a9.624,9.624,0,0,1,3.722-3c-1.45,1.89-2.62,3.248-3.61,4.723-4.162,6.2-8.673,12.131-13.062,18.155-5.286,7.259-10.412,14.663-15.153,22.284-10.117,16.247-20.653,32.242-29.8,49.078-2.573,4.737-5.311,9.385-7.886,14.122-1.456,2.681-2.754,5.449-4.111,8.185-1.1,2.213-2.174,4.432-3.264,6.645-.118-.043-.236-.085-.354-.132m1.924-.409c2.49-4.977,4.9-9.993,7.5-14.915,2.341-4.45,4.831-8.825,7.347-13.182q5.449-9.449,11.044-18.822c1.934-3.238,4.1-6.344,6-9.6,7.385-12.659,15.446-24.884,23.661-37.012.4-.592.852-1.155,1.275-1.735q5.623-7.731,11.248-15.466c1.631-2.252,3.236-4.522,4.851-6.787.041.024.083.047.122.069-.8,1.694-1.519,3.423-2.4,5.075-4.652,8.728-9.67,17.238-14.978,25.581q-14.617,22.971-29.21,45.949c-.915,1.442-1.867,2.86-2.782,4.3q-10.617,16.725-21.218,33.455c-1.2,1.892-2.351,3.806-3.527,5.709a14.852,14.852,0,0,1,1.07-2.618m-5.172,13.286a8.063,8.063,0,0,1,1.161-3.307c2.044-3.488,4.235-6.9,6.177-10.44,2.683-4.892,5.705-9.554,8.754-14.219,6.879-10.532,13.6-21.166,20.37-31.769q12.472-19.538,24.916-39.095c.238-.374.5-.732.757-1.1.067.059.138.116.209.173-2.294,3.962-4.458,8.008-6.907,11.87-5.1,8.04-10.416,15.946-15.515,23.989-3.222,5.083-6.246,10.292-9.289,15.485-3.9,6.667-7.664,13.414-11.608,20.057-2.473,4.166-5.087,8.26-7.794,12.283-3.305,4.918-6.771,9.726-10.17,14.582-.348.5-.706.995-1.062,1.493m-.633-11.769c3.7-13.28,9.143-25.884,15.257-38.21,1.357-2.734,2.695-5.479,4.047-8.215,1.869-3.783,3.511-7.7,5.661-11.315,5.052-8.492,10.214-16.921,16.373-24.692,2.9-3.659,5.484-7.566,8.439-11.175,4.263-5.209,8.659-10.312,13.127-15.342A188.483,188.483,0,0,1,901.5,534.018c.923-.805,1.875-1.576,2.815-2.359a2.328,2.328,0,0,1-.3,1.867,9.2,9.2,0,0,1-1.556,1.481,69.683,69.683,0,0,0-8.25,8.473c-3.3,3.909-6.763,7.674-10.093,11.557-3.388,3.948-6.82,7.871-10.013,11.972-3.256,4.176-6.177,8.608-9.368,12.834a191.648,191.648,0,0,0-13.75,20.606c-1.245,2.182-2.339,4.452-3.631,6.61a206.139,206.139,0,0,0-15.043,29.486c-3.358,8.431-6.649,16.884-8.632,25.768a39.92,39.92,0,0,1-4.7,11.325,2.3,2.3,0,0,1-.059-.728c.885-4.216,1.576-8.49,2.731-12.635m67.04-116.559a22.511,22.511,0,0,1,4.668-3.3c-2.665,3.039-5.443,5.949-8.13,8.947-4.009,4.477-8.036,8.948-11.9,13.548-2.768,3.3-5.3,6.789-7.914,10.219-3.913,5.146-8.03,10.139-11.339,15.727-1.463,2.471-3.155,4.808-4.633,7.271-2.176,3.612-4.442,7.19-6.334,10.953-3.631,7.214-7.107,14.51-10.485,21.849-2.437,5.294-4.617,10.711-6.905,16.074-.543,1.271-1.062,2.553-1.593,3.828a15.3,15.3,0,0,1,.287-2.211c4.839-18.22,11.49-35.71,21.07-52.007a189.633,189.633,0,0,1,18.806-26.588,244.085,244.085,0,0,1,24.4-24.31m-54.858,28.071c2.388-1.3,4.743-2.662,7.174-3.869a475.873,475.873,0,0,0,46.906-26.4,13.834,13.834,0,0,1,1.763-.856,37.3,37.3,0,0,1-3.647,3.293c-2.127,1.495-4.367,2.837-6.627,4.125-10.133,5.777-20.311,11.48-30.44,17.275a82.974,82.974,0,0,1-13.733,6.173,7.545,7.545,0,0,1-1.4.26m-30.359,29.3a28.059,28.059,0,0,1,4.29-9.155q-2.148,4.579-4.29,9.155m-1.818-1.845c-2.64,4.387-5.376,8.726-7.884,13.188-4.149,7.381-8.986,14.313-13.817,21.243-3.441,4.936-7.1,9.72-10.723,14.529-2.7,3.588-5.366,7.21-8.266,10.634-4.528,5.343-9.275,10.5-13.865,15.792a124.941,124.941,0,0,1-11.94,12.417c-.445.392-.933.734-1.4,1.1a14.914,14.914,0,0,1,2.345-3.919c2.117-2.675,4.292-5.307,6.413-7.981,3.688-4.643,7.341-9.312,11.018-13.955,3.232-4.082,6.507-8.114,9.413-12.466A164.2,164.2,0,0,1,773.979,635.2a165.377,165.377,0,0,0,13.955-18.814c.763-1.218,1.524-2.443,2.37-3.6q8.112-11.093,16.258-22.162l.252.122c-1.721,2.833-3.448,5.662-5.156,8.5m-55.836,83.033a8.879,8.879,0,0,1,1.039-1.377c4.174-3.952,8.327-7.922,12.574-11.789a43.647,43.647,0,0,0,6.545-6.753,58.226,58.226,0,0,1,3.909-5.146,68.606,68.606,0,0,0,7.719-10.689c2.534-4.247,5.138-8.451,7.635-12.718,3.545-6.041,7.09-12.09,10.518-18.2,2.618-4.668,5.063-9.433,7.585-14.154a2.513,2.513,0,0,1-.063.714c-3.643,11.038-8.085,21.717-14.346,31.561q-2.892,4.546-6.027,8.933c-3.082,4.312-6.132,8.652-9.417,12.8a163.389,163.389,0,0,1-23.254,23.525c-1.4,1.178-2.937,2.2-4.418,3.291m-14.931,9.789c.742-.718,1.477-1.434,2.219-2.148,3.494-3.354,7.149-6.562,10.451-10.1,5.455-5.838,10.729-11.842,15.981-17.864,2.89-3.311,5.66-6.737,8.331-10.227,3.222-4.2,6.165-8.626,9.444-12.786,5.014-6.368,9.216-13.282,13.8-19.939.4-.59.738-1.233,1.1-1.853q4.067-6.987,8.14-13.975c.445-.761.972-1.475,1.464-2.209a33.446,33.446,0,0,1-2.831,6.438c-3.281,5.992-6.478,12.033-9.932,17.921-4.361,7.444-8.923,14.771-13.449,22.117-1.226,1.985-2.579,3.9-3.97,5.77-1.768,2.374-3.684,4.644-5.451,7.017a52.137,52.137,0,0,1-7.874,8.459c-2.927,2.512-5.705,5.2-8.508,7.855-3.586,3.395-7.1,6.871-10.707,10.237a27.262,27.262,0,0,1-8.215,5.284m-5.669,3.256a38.026,38.026,0,0,1,2.443-4.471q8.915-13.821,17.878-27.613c.877-1.357,1.753-2.721,2.719-4.017,3.106-4.182,6.269-8.319,9.381-12.5A150.735,150.735,0,0,1,775.614,626.7c2.028-1.9,3.976-3.9,5.838-5.962,2.335-2.593,4.546-5.3,6.814-7.961l.309.088a4.987,4.987,0,0,1-.3.728,160.136,160.136,0,0,1-12.423,17.61c-1.247,1.527-2.628,2.951-3.873,4.485a205.778,205.778,0,0,0-13,17.868,30.585,30.585,0,0,1-1.953,2.575c-3.1,3.846-6.232,7.662-9.3,11.535-2.571,3.234-5.04,6.547-7.6,9.79-3.228,4.088-6.7,7.975-9.466,12.43a16.2,16.2,0,0,1-5.439,5.429m80.509-107q-1.629,2.114-3.252,4.233c.456-.226.909-.452,1.814-.9-2.221,2.982-4.076,5.7-6.167,8.223-4.237,5.111-8.655,10.08-12.9,15.188a104.409,104.409,0,0,1-12.478,13,42.542,42.542,0,0,0-3.077,3.012,193.229,193.229,0,0,0-14.6,17.266c-5.148,6.816-10.1,13.752-14.61,21-4.035,6.486-7.981,13.026-11.974,19.536-.494.806-1.029,1.583-1.548,2.372a38.746,38.746,0,0,1,3.395-8.48c3.7-6.7,8.3-12.808,12.519-19.17.151-.226.338-.419.5-.639q3.722-5.11,7.446-10.225c.368-.509.71-1.037,1.09-1.54,2.042-2.728,4.076-5.461,6.145-8.172,1.578-2.064,3.2-4.094,4.8-6.143,2.268-2.894,4.524-5.8,6.8-8.685,2.337-2.953,4.5-6.071,7.074-8.805,6.761-7.182,13.709-14.193,20.576-21.283.622-.639,1.182-1.338,1.77-2.007a23.074,23.074,0,0,0-2.508,1.934c-4.054,4.068-8.034,8.213-12.088,12.283-5.382,5.41-10.764,10.817-15.106,17.146a55.578,55.578,0,0,1-4.042,5.386c-4.934,5.6-9.285,11.651-13.735,17.624-3.806,5.113-7.406,10.377-11.116,15.564-1.765,2.465-3.563,4.9-5.347,7.351a67.522,67.522,0,0,1,3.11-6.252c2.1-3.667,4.294-7.277,6.448-10.914a247.542,247.542,0,0,1,24.493-34.451,193.373,193.373,0,0,1,35.239-32.747,10.493,10.493,0,0,1,1.318-.71m8.2-5.748c-1.686,2.223-3.462,4.566-5.24,6.909,2.7-5.563,3.037-5.98,5.24-6.909m-21.741,1.78q-7.286,2.364-14.592,4.68c-1.934.61-3.9,1.137-5.878,1.713-.012-.287-.055-.425-.016-.454a39.106,39.106,0,0,1,7.951-4.888c.205-.362.319-.909.63-1.058a10.96,10.96,0,0,1,2.984-1.108c7.442-1.176,14.9-2.28,22.349-3.38a14.291,14.291,0,0,1,2.127,0l3.275-.3a5.061,5.061,0,0,1-3.244.466c-5.345.995-10.69,1.967-16.028,2.994-2.172.419-4.32.954-6.476,1.436a14.285,14.285,0,0,0,2.06.053c1.993-.228,3.979-.529,5.964-.8a5.68,5.68,0,0,1-1.106.645m-16.5-1.314a3.266,3.266,0,0,1,.433-.866l7.627-11.441c.846-1.271,1.615-2.605,2.547-3.812a293.429,293.429,0,0,1,19.941-22.634c6.244-6.574,12.907-12.747,19.365-19.119a175.611,175.611,0,0,0,21.721-25.327c2.233-3.252,4.747-6.318,7.229-9.393,3.551-4.4,7.192-8.722,10.937-13.255-.395.73-.714,1.365-1.078,1.975-3.02,5.105-5.976,10.249-9.1,15.293-2.17,3.513-4.577,6.883-6.875,10.32a129.929,129.929,0,0,1-10.693,13.52c-4.576,5.189-9.775,9.767-14.38,14.95-5.482,6.171-11.449,11.9-16.874,18.153-3.706,4.265-7.934,8.077-11.681,12.312-6.014,6.8-12.639,12.983-19.121,19.325m11.3,6.456c-4.247,1.94-8.535,3.8-12.749,5.8-9.334,4.432-18.5,9.224-28.191,12.885-4.2,1.587-8.384,3.244-12.5,5.034-14.846,6.454-29.952,12.238-45.118,17.872-1.713.639-3.468,1.172-5.2,1.745a17.1,17.1,0,0,1,2.3-1.509q8.036-3.814,16.121-7.532c9.4-4.3,18.91-8.362,28.2-12.883,10.357-5.046,20.881-9.674,31.63-13.776,6.462-2.465,13.089-4.489,19.63-6.747a22.932,22.932,0,0,0,2.583-1.239c.926-.163,1.863-.277,2.774-.5,1.713-.417,3.415-.885,5.119-1.338-1.527.732-3.049,1.481-4.589,2.182M766.573,592.7c-15.33,4.343-30.337,10.367-45.13,16.927s-29.175,13.92-43.7,21.09c.7-.482,1.4-.976,2.113-1.444,3.828-2.516,7.762-4.886,11.476-7.56a186.063,186.063,0,0,1,23.4-14.392c6.224-3.21,12.667-6,19.087-8.809a84.321,84.321,0,0,1,10.369-3.8c6.905-2,13.886-3.746,20.838-5.587a17.541,17.541,0,0,1,1.766-.293c-.069,1.243-.134,2.343-.22,3.865m-93.66,45.329a22.139,22.139,0,0,1,2.658-1.082c1.631-.439,3.309-.706,4.949-1.123a12.913,12.913,0,0,0,1.9-.82c.122-1.218,1.218-1.176,1.989-1.454,17.4-6.24,34.533-13.166,51.646-20.163,14.628-5.98,29.1-12.236,43.12-19.542,1.426-.744,2.929-1.359,4.426-1.963a9.87,9.87,0,0,1,1.8-.364c.34-.214.677-.431,1.017-.645l.775-.179c.073-.016.183-.067.214-.041a1.727,1.727,0,0,1,.209.319.663.663,0,0,0,.395.242q-.482.317-.958.635c-.325.248-.655.5-.982.745-2.874,1.65-5.736,3.323-8.628,4.947-4.074,2.284-8.185,4.5-12.249,6.8-9.316,5.27-18.692,10.446-28.693,14.313q-15.968,6.181-32.3,11.392a228.091,228.091,0,0,1-28.644,7.629c-.873.157-1.763.24-2.644.356l-.022.006.022-.008m.873-3.433c10.528-5.431,21.011-10.961,31.632-16.2,18.052-8.9,36.494-16.892,55.749-22.868.039-.012.075-.016.112-.026a.561.561,0,0,0,.3.549c-.234.106-.46.224-.7.319-9.834,3.94-19.644,7.937-29.153,12.639-5.152,2.545-10.4,4.892-15.615,7.3-11.171,5.146-22.335,10.314-33.54,15.385-3.869,1.749-7.851,3.242-11.781,4.847a32.413,32.413,0,0,1,2.992-1.944m94.74-48.964c-.271.781-.494,1.42-.643,1.849-7.454,1.885-14.714,3.578-21.89,5.587-4.4,1.231-8.685,2.888-12.979,4.473-2.357.873-4.6,2.034-6.93,2.992-11.016,4.544-21.17,10.634-31,17.3q-10.471,7.109-20.958,14.2a4.192,4.192,0,0,1-.879.368,9.538,9.538,0,0,1,1.029-1.094q6.688-5.443,13.4-10.851a162.557,162.557,0,0,1,48.74-27.1c10.052-3.492,20.462-5.526,30.841-7.68a8.419,8.419,0,0,1,1.269-.045m90.428-110.711c-16.534,17.83-33.083,35.594-52.07,51.346a7.561,7.561,0,0,1,.508-1.007c.72-.915,1.473-1.808,2.2-2.719a240.44,240.44,0,0,1,25.931-27.314c7.17-6.521,14.177-13.235,21.851-19.184.508-.395,1.049-.749,1.576-1.121m2.274-.563.275.224c-1.737,2.258-3.417,4.562-5.231,6.759q-5.65,6.855-11.415,13.62a89.05,89.05,0,0,1-11.547,11.268c-4.859,3.976-9.7,8-14.285,12.287-9.4,8.783-17.594,18.672-25.5,28.795-.423.541-.936,1.013-1.408,1.517a2.52,2.52,0,0,1,.46-1.466c2.2-3.6,4.444-7.18,6.6-10.813a32.956,32.956,0,0,1,5.75-7.084c1.167-1.115,2.337-2.235,3.555-3.293,8.956-7.762,17.809-15.641,26.136-24.078,6.364-6.45,12.584-13.044,18.861-19.581,2.6-2.707,5.168-5.435,7.754-8.154m11.606-10.607c-1.808,2.726-3.675,5.359-5.345,8.111a97,97,0,0,1-9.411,12.8c-4.635,5.39-9.051,10.939-13.162,16.727A144.969,144.969,0,0,1,828.7,520.462c-5.8,5.754-11.626,11.492-17.555,17.12-6.071,5.762-11.506,12.106-17.14,18.269a118.363,118.363,0,0,0-14.4,19.136c-.692,1.159-1.517,2.235-2.237,3.376-1.627,2.577-3.224,5.177-4.843,7.764-.262.419-.576.807-.865,1.21-.163-.1-.323-.2-.486-.3.175-.4.321-.812.527-1.194,2.292-4.275,4.57-8.561,6.9-12.814,1.294-2.366,2.831-4.607,4-7.029a100.32,100.32,0,0,1,12.045-18.816c5.38-6.728,11.105-13.184,16.819-19.64A143.962,143.962,0,0,1,829.4,510.857c1.965-1.572,3.911-3.167,5.882-4.731A74.457,74.457,0,0,0,846.8,494.445c3.264-4.056,6.635-8.032,9.873-12.11,3.568-4.5,7.019-9.1,10.564-13.628a19.7,19.7,0,0,1,5.6-4.959m-3.474,7.522,3.049-4.932c.067.045.132.083.2.126q-1.23,1.992-2.463,3.987c-.2.319-.431.62-.649.927Zm6.883-8.2c-.37,1.265-1.07,2.333-1.509,3.5-2.331,6.175-5.951,11.683-9.137,17.4-3.669,6.59-7.871,12.877-11.819,19.315-2.681,4.369-5.266,8.793-7.977,13.135a106.824,106.824,0,0,1-10.634,14.907c-3.047,3.417-6.275,6.678-9.253,10.154a54.957,54.957,0,0,1-8.628,8.087,116.991,116.991,0,0,0-9.735,8.5c-3.582,3.4-7.473,6.466-11.089,9.824a89.846,89.846,0,0,1-11.411,9c-1.072.714-2.182,1.363-3.277,2.038a10.739,10.739,0,0,1,1.255-1.554c4.414-3.97,8.364-8.39,12.4-12.731,5.443-5.85,10.961-11.63,16.467-17.419,4.145-4.359,8.335-8.673,12.487-13.028,2.847-2.99,5.585-6.086,8.494-9.01a133.683,133.683,0,0,0,13.394-15.454c1.906-2.614,3.818-5.223,5.6-7.916,2.333-3.519,4.572-7.1,6.793-10.689,1.509-2.443,2.852-4.991,4.377-7.424,3.726-5.937,7.516-11.836,11.284-17.744.622-.974,1.273-1.924,1.914-2.884M796.9,569.031c1.566-1.334,3.159-2.636,4.7-4,2.557-2.262,5.081-4.554,7.613-6.84,2.2-1.987,4.294-4.1,6.6-5.951a92.92,92.92,0,0,0,12.18-11.384c4.53-5.217,9.4-10.131,13.359-15.845A228.389,228.389,0,0,0,854.5,504a142.292,142.292,0,0,1,8.185-13.308c1.43-2.062,2.644-4.275,3.873-6.47,1.682-3,3.281-6.057,4.916-9.088a5.766,5.766,0,0,1-.448,2.117c-1.757,4.229-3.47,8.478-5.339,12.657a110.5,110.5,0,0,1-5.052,10.416A219.308,219.308,0,0,1,845.924,522.9a115.657,115.657,0,0,1-8.5,10.436,348.863,348.863,0,0,1-30.754,28.624c-3.118,2.557-6.332,5-9.5,7.489-.091-.142-.181-.283-.272-.423m85.174-111.356a8.278,8.278,0,0,1,4.723-3.736c9.869-3.629,19.689-7.4,29.586-10.963q12.427-4.476,25-8.581c5.036-1.65,10.186-2.959,15.271-4.467,10.172-3.014,20.378-5.913,30.778-8.057q20.6-4.247,41.253-8.238c15.8-3.047,31.73-5.364,47.707-7.324,13.207-1.619,26.476-2.579,39.75-3.543a189.86,189.86,0,0,1,30.963-.181,84.468,84.468,0,0,0,14.272-.144,100.463,100.463,0,0,1,16.428.11c3.22.275,6.444.494,9.659.805,1.192.112,2.365.393,3.545.606a8.816,8.816,0,0,1-1.424.378c-4.46.535-8.923,1.08-13.394,1.552-13.591,1.432-27.1,3.315-40.511,6.049a527.452,527.452,0,0,0-57.366,14.988,358.221,358.221,0,0,0-38.566,14.6c-1.3.594-2.726.919-4.009,1.538-3.071,1.483-6.057,3.153-9.149,4.587-7.939,3.675-16.07,6.765-24.812,7.971a28.481,28.481,0,0,0-3.639.96,15.069,15.069,0,0,1-2.8.775,64.13,64.13,0,0,1-8.329.317q-9.015-.528-18-1.485a174.865,174.865,0,0,0-30.41-1.039,100.594,100.594,0,0,0-23.031,4.18A157.33,157.33,0,0,0,887,471.931a3.506,3.506,0,0,0-.679.433c-.553.49-.659,1.043-.022,1.768.486.035,1.1.094,1.713.116,1.794.063,3.594.049,5.384.179,8.514.6,17.024,1.259,25.541,1.869a74.074,74.074,0,0,0,15.334-.523q8.549-1.162,17.1-2.333c8.736-1.194,17.391-2.844,25.962-4.89,5.943-1.418,11.884-2.878,17.48-5.441a23.8,23.8,0,0,1,2.961-.946,13.481,13.481,0,0,1-1.359,1.1Q978.9,474.4,961.375,485.533c-3.787,2.416-7.583,4.833-11.234,7.446-13.007,9.309-26.065,18.552-38.891,28.1a532.584,532.584,0,0,1-46.777,31.358c-11.606,6.869-23.281,13.6-35.34,19.64-2.888,1.446-5.835,2.786-8.766,4.141a6.731,6.731,0,0,1-1.8.537c-2.664.407-5.329.816-8.008,1.129-7.316.86-14.643,1.666-21.959,2.514-1.229.142-2.441.391-3.657.59a100.549,100.549,0,0,1,9.147-7.945,458.637,458.637,0,0,0,37.207-31.506c3.834-3.647,7.611-7.383,11.118-11.341A145.382,145.382,0,0,0,853.8,515.18c4.641-6.857,9.139-13.766,12.421-21.416,3.22-7.516,6.537-14.98,8.754-22.88a40.714,40.714,0,0,1,4.125-9.051c.842-1.471,2.136-2.683,2.97-4.157M675.012,604.931c.4-.427.8-.877,1.235-1.265,2.76-2.441,5.591-4.8,8.282-7.312,6.56-6.128,13.158-12.226,19.53-18.55a115.174,115.174,0,0,0,8.175-9.659c3.429-4.267,6.763-8.616,10.151-12.918,1.387-1.766,2.768-3.537,4.229-5.242q7.191-8.384,14.447-16.711a40.555,40.555,0,0,1,5.992-6.159c-3.329,5.14-6.623,10.3-10.292,15.171-5.394,7.178-11.077,14.14-16.6,21.224a218.793,218.793,0,0,1-19.274,21.414c-7.666,7.534-16.428,13.66-25.227,19.74a2.651,2.651,0,0,1-.645.266m59.968-66.246q-.763.7-1.523,1.406l1.224-1.68.3.275m-77.9,76.752a3.37,3.37,0,0,1,.437-.555c4.166-3.826,8.29-7.7,12.525-11.451,5.919-5.241,11.775-10.536,17.319-16.178,7.552-7.688,15.123-15.352,22.5-23.208,5.471-5.821,11.134-11.461,16.746-17.15,1.5-1.523,3.108-2.943,4.674-4.406-.651.86-1.277,1.735-1.967,2.559-2.016,2.4-4.113,4.737-6.092,7.17-1.7,2.085-3.236,4.3-4.908,6.4-2.071,2.6-4.2,5.136-6.315,7.692-2.858,3.454-5.5,7.119-8.63,10.3-5.962,6.078-12.127,11.96-18.344,17.773-7.877,7.357-16.148,14.236-25.437,19.782-.8.478-1.668.852-2.508,1.269m-16.135,9.712a13.573,13.573,0,0,1,1.2-1.658c8.909-9.362,17.716-18.824,26.787-28.026,10.143-10.29,20.478-20.395,30.837-30.469,4.178-4.064,8.64-7.839,12.977-11.74,9.006-8.1,18.043-16.176,27.025-24.31q5.083-4.607,9.962-9.438c1.9-1.875,3.614-3.942,5.41-5.923a13.979,13.979,0,0,1-2.939,4.743c-5.594,5.947-11.136,11.941-16.774,17.844-7.188,7.532-14.453,14.99-21.68,22.481-6.606,6.844-13.15,13.752-19.831,20.523q-8.888,9.006-18.037,17.752c-5.329,5.073-10.809,9.993-16.327,14.864q-5.446,4.805-11.205,9.25a23.4,23.4,0,0,1-7.408,4.1m-1.231-.441c2.593-4.794,5.469-9.346,8.429-13.843a61.521,61.521,0,0,1,5-7.021c5.388-6.136,10.723-12.35,16.5-18.119,11.752-11.746,23.842-23.146,36.546-33.876.95-.8,1.751-1.77,2.622-2.66a12.151,12.151,0,0,0-1.57.948c-7.467,6.177-14.876,12.424-21.871,19.14-6.474,6.212-12.954,12.417-19.37,18.688-2.317,2.266-4.452,4.715-6.673,7.078a1.967,1.967,0,0,1,.472-1.312c2.605-3.079,5.156-6.206,7.853-9.2,4.32-4.8,8.726-9.523,13.115-14.258,4.027-4.341,7.9-8.85,12.169-12.934,7.131-6.818,14.439-13.463,21.845-19.988,8.758-7.721,18.251-14.527,27.644-21.45,2.6-1.912,5.412-3.523,8.166-5.209a10.017,10.017,0,0,1,2.087-.765A159.714,159.714,0,0,0,737.862,523c-1.509,1.519-2.935,3.122-4.4,4.684a22.668,22.668,0,0,0,2.51-1.914,176.026,176.026,0,0,1,22.152-18.814c.854-.614,1.735-1.2,2.6-1.792a2.2,2.2,0,0,1-.624,1.487c-1.792,2.012-3.612,4-5.386,6.025a172.793,172.793,0,0,1-15.7,15.893c-12.129,10.687-24.385,21.245-36.17,32.3-12.639,11.856-24.9,24.125-37.132,36.4-6.974,6.995-13.569,14.36-20.344,21.55-1.865,1.979-3.765,3.926-5.648,5.886m57.5-84.517c-.053.061-.108.124-.159.189a189.165,189.165,0,0,0-20.283,18.812.252.252,0,0,0-.049.311c-.665.746-1.33,1.5-1.987,2.252A201,201,0,0,0,659.58,581.68c-3.006,4.469-6.128,8.858-9.2,13.284a11.1,11.1,0,0,1,1.09-2.4q3.31-5.4,6.667-10.76a170.042,170.042,0,0,1,15.735-21.172,115.32,115.32,0,0,1,20.814-19.054,25.033,25.033,0,0,1,2.524-1.393m23.529-15.647a16.966,16.966,0,0,1-1.637,1.406,259.736,259.736,0,0,0-20.96,16.908,152.885,152.885,0,0,0-13.688,14.1c-4.908,5.486-9.692,11.083-14.453,16.7-3.13,3.7-6.143,7.5-9.179,11.284a206.887,206.887,0,0,0-12.442,16.593c-2.8,4.318-5.728,8.559-8.6,12.836a61.9,61.9,0,0,1,3.812-7.43c2.089-3.352,4.371-6.584,6.568-9.869.6-.9,1.174-1.812,1.786-2.7q5.513-7.987,11.034-15.961c.458-.663.942-1.316,1.4-1.977,3.4-4.859,7.113-9.474,10.918-14.022,1.8-2.158,3.637-4.286,5.551-6.336,4.814-4.715,9.779-9.287,14.925-13.644a13.9,13.9,0,0,0,1.164-.828c2.654-2.136,5.217-4.381,7.924-6.44a135.544,135.544,0,0,1,15.877-10.623m39.929-22.477a7.591,7.591,0,0,1,3.944-1.113c-1.049.838-1.7,1.426-2.42,1.912-1.336.905-2.677,1.814-4.084,2.606-5.632,3.173-11.449,6.039-16.65,9.936-2.876,2.154-5.766,4.29-8.62,6.474-8.272,6.334-16.648,12.533-24.259,19.685-7.788,7.312-16.081,14.087-23.173,22.136-5.7,6.468-11.557,12.794-17.256,19.258q-5.519,6.255-10.766,12.741c-3.437,4.263-6.861,8.551-9.985,13.04-4.363,6.269-8.431,12.739-12.647,19.105a11.4,11.4,0,0,1-1.391,1.466l-.529-.443a58.518,58.518,0,0,1,3.714-7.709c2.392-3.694,4.867-7.334,7.257-11.028,3.515-5.437,7.115-10.811,11.14-15.885,5.187-6.545,10.3-13.15,15.633-19.577,4.7-5.665,9.61-11.156,14.492-16.664a169.023,169.023,0,0,1,16.878-17c6.442-5.461,12.808-11.028,19.913-15.631,12.676-8.2,25.457-16.235,38.81-23.305m-132.09,43.374a10.7,10.7,0,0,1-1.176.873,267.057,267.057,0,0,0-32.928,21.857c-.537.425-1.116.8-2.125,1.521a10.079,10.079,0,0,1,.765-1.08,125.468,125.468,0,0,1,33.319-22.488,15.96,15.96,0,0,1,2.146-.683m48.1-18.169a19.884,19.884,0,0,1,2.766-.519,7.109,7.109,0,0,1-.995.7q-16.057,8.128-32.125,16.247a22.669,22.669,0,0,0-2.4,1.611,8.868,8.868,0,0,0,1.747-.45q5.821-2.816,11.606-5.7,11.951-5.919,23.9-11.842a12.334,12.334,0,0,1,1.53-.529c-2.583,2.105-5.266,3.9-7.855,5.823A151,151,0,0,1,660.9,541.77q-13.848,8.07-27.642,16.229c-7.572,4.479-15.11,9.015-22.671,13.52-3.163,1.883-6.407,3.637-9.484,5.652-10.147,6.627-20.232,13.349-30.353,20.022a22.213,22.213,0,0,1-2.005,1.07,7.988,7.988,0,0,1,.946-1.174c3.407-3.039,6.751-6.157,10.278-9.045,4.643-3.8,9.409-7.446,14.179-11.085,3.346-2.553,6.791-4.975,10.168-7.483a16.076,16.076,0,0,0,1.525-1.456,8.594,8.594,0,0,0-1.684.675c-1.938,1.3-3.879,2.6-5.736,4.015-5.286,4.025-10.587,8.034-15.771,12.183-4.064,3.25-7.963,6.7-11.939,10.062-.553.466-1.121.913-1.684,1.371a35.835,35.835,0,0,1,3.869-5.565c2.693-3.242,5.24-6.643,8.221-9.609,13.534-13.475,29.165-24.161,45.809-33.343,15.792-8.709,32.659-14.943,49.757-20.541m-93.3,62.663c9.977-6.694,19.961-13.38,30.485-19.209,2.98-1.652,5.931-3.36,8.823-5.158q17.979-11.188,36.483-21.466a18.676,18.676,0,0,1-1.993,1.881c-6.3,4.6-12.564,9.253-18.975,13.7-4.564,3.169-9.246,6.191-14.03,9.01-11.055,6.509-22.188,12.875-33.314,19.255a63.933,63.933,0,0,1-11.889,5.189c1.469-1.072,2.9-2.191,4.41-3.2M566.913,466.448c4.55,4.326,9.192,8.559,13.872,12.747,2.2,1.971,4.741,3.584,6.859,5.636a66.282,66.282,0,0,0,14.224,10.107q8.317,4.625,16.63,9.25a1.869,1.869,0,0,1-.728-.043c-2.782-1.253-5.62-2.4-8.311-3.828-4.44-2.361-8.775-4.924-13.168-7.371-1.883-1.045-3.844-1.955-5.707-3.031-1.469-.85-2.858-1.845-4.265-2.8-.96-.657-1.892-1.361-2.835-2.044.051.169.055.393.171.5a28.824,28.824,0,0,0,7.412,5.288c1.133.535,2.256,1.109,3.346,1.729,5.223,2.972,10.438,5.97,15.662,8.945a19.563,19.563,0,0,0,2.174,1.066q7.582,3.146,15.171,6.256c3.391,1.387,6.789,2.75,10.5,4.253a5.713,5.713,0,0,1-1.035.094,63.384,63.384,0,0,1-12.291-2.923c-3.71-1.355-7.393-2.785-11.107-4.115a59.318,59.318,0,0,1-10.617-5.209,121.114,121.114,0,0,1-18.881-13.794c-1.942-1.761-4.056-3.372-5.457-5.728l2.03,1.255c-.181-.3-.293-.7-.557-.877-3.01-2.018-5.323-4.786-7.93-7.247-5.868-5.539-11.846-10.973-17.769-16.459-.423-.393-.787-.846-1.18-1.271a3.642,3.642,0,0,1,1.845.506,55.938,55.938,0,0,1,11.945,9.112m12.11,4.454a29.536,29.536,0,0,0,3.82,2.972c5.7,3.433,11.083,7.318,16.577,11.051,5.345,3.631,10.849,7.029,16.29,10.518,1.363.873,2.713,1.772,4.147,2.514a247.514,247.514,0,0,0,26.348,11.61c3.584,1.359,7.284,2.418,11.518,3.806A63.621,63.621,0,0,1,645.8,511.5c-4.263-1.066-8.518-2.189-12.775-3.3a67.823,67.823,0,0,1-15.574-5.886c-4.094-2.241-8.272-4.334-12.3-6.7-4.408-2.593-8.921-5.044-12.885-8.325-1.865-1.546-3.639-3.2-5.473-4.774-3.615-3.094-7.3-6.1-10.841-9.269-3.94-3.525-7.754-7.184-11.618-10.786a46.6,46.6,0,0,1,14.681,8.439M559.44,458.025a8.838,8.838,0,0,1,1.015.266c4.678,1.841,9.376,3.631,14.018,5.553a63.73,63.73,0,0,1,12.629,6.6c2.2,1.558,4.367,3.161,6.578,4.7q5.092,3.533,10.231,7c3.724,2.5,7.379,5.13,11.252,7.375,6.527,3.777,13.192,7.32,19.829,10.9,1.816.98,3.72,1.8,5.626,2.6,6.139,2.581,12.576,4.259,18.975,6.051s12.824,3.464,19.243,5.189a3.813,3.813,0,0,1,2.292,1.216,2.984,2.984,0,0,1-.525.079,112.267,112.267,0,0,1-28.282-5.113c-6.535-2.01-12.792-4.739-19.087-7.365a96.588,96.588,0,0,1-14.323-6.834c-6.246-3.909-12.521-7.77-18.776-11.659-.993-.616-1.951-1.287-2.917-1.938-3.647-2.457-7.312-4.89-10.929-7.387-2.363-1.629-4.741-3.248-6.964-5.056a63.469,63.469,0,0,0-12.554-7.788c-2.571-1.243-5.1-2.583-7.64-3.879.1-.165.206-.332.307-.5m116,54.055q-1.766-.769-3.539-1.536a3.741,3.741,0,0,1,3.539,1.536m-69.053-33.866c2.17,1.259,4.42,2.386,6.608,3.62,5,2.821,9.948,5.748,14.994,8.5,6.539,3.568,13.182,6.948,19.724,10.518a96.6,96.6,0,0,0,14.419,6.639,32.377,32.377,0,0,1,3.3,1.572,2.16,2.16,0,0,1-1.65.087c-4.318-1.231-8.64-2.447-12.942-3.728a82.173,82.173,0,0,1-18.328-7.7c-4.178-2.451-8.526-4.611-12.78-6.946-3.146-1.729-6.362-3.364-9.36-5.329-5.181-3.391-10.223-7-15.32-10.528q-1.108-.766-2.191-1.564c-4.9-3.661-9.93-7.109-15.627-9.458-.746-.307-1.452-.712-2.2-1.009A8.835,8.835,0,0,1,573.09,462c1.07.271,2.136.543,3.206.82l.026.014c4.308,1.792,8.636,3.531,12.946,5.317a40.144,40.144,0,0,1,10.271,5.8,51.138,51.138,0,0,0,6.848,4.261m5.079-9.354c-2.958-1.308-5.817-2.856-8.832-3.993a215.086,215.086,0,0,0-31.227-9.242c-1.058-.228-2.089-.608-3.13-.932,2.339.228,4.7.3,7,.742,14.329,2.746,28.372,6.4,41.607,12.773a121.707,121.707,0,0,1,22.585,14.407c-1.418-.779-2.758-1.688-4.172-2.467-2.9-1.607-5.783-3.277-8.791-4.672-4.963-2.307-10.029-4.4-15.037-6.616m27,14.36c2.64,1.859,5.2,3.85,7.662,5.937,1.774,1.5,3.179,3.46,5.006,4.888,5.728,4.481,11.575,8.809,17.382,13.19.525.4,1.08.761,1.619,1.137a25.986,25.986,0,0,1-12.369-4.983,111.512,111.512,0,0,0-11.683-8.2c-1.7-1-3.336-2.125-4.961-3.248-4.656-3.214-9.293-6.458-13.939-9.686-2.064-1.436-4.1-2.913-6.206-4.29a52.086,52.086,0,0,0-5.317-3.173q-5.19-2.569-10.508-4.869a165.014,165.014,0,0,0-22.288-8.008,18.78,18.78,0,0,0-2.608-.348,9.367,9.367,0,0,0,1.456.683,159.028,159.028,0,0,1,19.3,6.793,135.23,135.23,0,0,1,12.523,5.636c4.34,2.347,8.449,5.132,12.57,7.865q10.556,7,20.991,14.189c3.364,2.307,6.858,4.458,9.726,7.463-4.458-2.154-8.823-4.452-13.188-6.761q-9.177-4.848-18.342-9.718c-3.566-1.9-7.109-3.856-10.644-5.821-2.98-1.662-5.947-3.34-8.893-5.058a61.548,61.548,0,0,1-5.229-3.279,41.923,41.923,0,0,0-8.787-5.215c-3.661-1.481-7.274-3.1-10.971-4.481-.83-.309-1.641-.69-2.457-1.041a.292.292,0,0,0-.157-.12c-.118-.031-.234-.063-.348-.092a10.6,10.6,0,0,0-3.031-.814c-.151-.041-.3-.079-.443-.122-.893-.395-1.77-.82-2.679-1.163-1.786-.677-3.594-1.3-5.4-1.938-.539-.12-1.076-.236-1.619-.356.085-.167.169-.334.254-.5-2.355-.555-4.709-1.117-7.068-1.664a6.212,6.212,0,0,1-4.5-2.935c3.838.641,7.564,1.216,11.274,1.89a220.74,220.74,0,0,1,30.446,8.081c3.486,1.163,6.94,2.469,10.312,3.928,5.766,2.5,11.4,5.307,17.2,7.735a83,83,0,0,1,15.9,8.465m19.221,14.362a25.076,25.076,0,0,1-8.49-7.32q4.244,3.658,8.49,7.32m20.3,14.27c-1.127-.734-2.3-1.393-3.429-2.123-2.791-1.8-5.565-3.612-8.349-5.423a.223.223,0,0,0,.036-.039c5.9,3.2,11.8,6.407,17.952,9.749a11.4,11.4,0,0,1-6.21-2.164m7.522,5.581v.555c-19.76.3-39.215-1.178-57.413-10.04a2.564,2.564,0,0,1,.942.116c5.042,1.314,10.068,2.677,15.122,3.93a78.916,78.916,0,0,0,8.691,1.814c8.728,1.139,17.474,2.13,26.218,3.136,2.14.246,4.292.327,6.439.488m5.553,3.816a51.022,51.022,0,0,1-4.916,2.378,58.032,58.032,0,0,1-5.7,1.576c-1.953.506-3.913.982-5.87,1.473a2.975,2.975,0,0,1,.783-.523c4.664-1.611,9.332-3.214,14.012-4.774a6.173,6.173,0,0,1,1.692-.13M568.991,599.862a14.153,14.153,0,0,1,4.064-2.746c4.682-2.07,9.419-4.017,14.106-6.077a50.763,50.763,0,0,0,4.79-2.469c8.49-4.88,16.951-9.806,25.441-14.691a334.2,334.2,0,0,0,32.057-20.858c10.04-7.418,20.073-14.846,30.162-22.2,3.69-2.687,7.536-5.16,11.307-7.731.122.142.24.287.36.431-3.633,2.9-7.217,5.88-10.91,8.7-8.071,6.155-16.2,12.23-24.3,18.349-1.287.974-2.569,1.965-3.791,3.024a135.519,135.519,0,0,1-12.659,9.6c-3.712,2.528-7.357,5.162-11.111,7.617-4.135,2.7-8.292,5.38-12.574,7.837-7.086,4.068-14.271,7.975-21.44,11.9a91.4,91.4,0,0,1-24.119,9.145,13.46,13.46,0,0,1-1.377.161" transform="matrix(-0.643, 0.766, -0.766, -0.643, 1391.921, 106.993)"/></svg>