<svg xmlns="http://www.w3.org/2000/svg" width="24.25" height="24.25" viewBox="0 0 24.25 24.25">
  <path id="product_added" d="M15.5,3.375A12.125,12.125,0,1,0,27.625,15.5,12.123,12.123,0,0,0,15.5,3.375Zm6.208,8.773-7.794,7.829h-.006a1.053,1.053,0,0,1-.676.321,1.021,1.021,0,0,1-.682-.332L9.286,16.7a.232.232,0,0,1,0-.332l1.038-1.038a.225.225,0,0,1,.326,0l2.588,2.588,7.112-7.164a.23.23,0,0,1,.163-.07h0a.212.212,0,0,1,.163.07L21.7,11.81A.23.23,0,0,1,21.708,12.148Z" transform="translate(-3.375 -3.375)" fill="red"/>
</svg>
