<svg xmlns="http://www.w3.org/2000/svg" width="17" height="15.755" viewBox="0 0 17 15.755">
  <g id="upload" transform="translate(0 -17.25)">
    <g id="Group_529" data-name="Group 529" transform="translate(0 17.25)">
      <path id="Path_7276" data-name="Path 7276" d="M16.513,228.224a.493.493,0,0,0-.487.5v4.566a2.22,2.22,0,0,1-2.183,2.249H3.157a2.22,2.22,0,0,1-2.183-2.249v-4.64a.493.493,0,0,0-.487-.5.493.493,0,0,0-.487.5v4.64a3.21,3.21,0,0,0,3.157,3.253H13.843A3.21,3.21,0,0,0,17,233.292v-4.566A.5.5,0,0,0,16.513,228.224Z" transform="translate(0 -220.79)" fill="#00afef"/>
      <path id="Path_7277" data-name="Path 7277" d="M137.179,21.3l2.335-2.335V29.148a.5.5,0,0,0,1,0V18.964l2.335,2.335a.505.505,0,0,0,.353.149.484.484,0,0,0,.353-.149.5.5,0,0,0,0-.71l-3.19-3.19a.508.508,0,0,0-.353-.149.486.486,0,0,0-.353.149l-3.19,3.19a.5.5,0,0,0,.706.71Z" transform="translate(-131.516 -17.25)" fill="#00afef"/>
    </g>
  </g>
</svg>
