<svg xmlns="http://www.w3.org/2000/svg" width="97.736" height="102.125" viewBox="0 0 97.736 102.125"><defs><style>.a{fill:#71c5b6;}.b{fill:#f9cfa9;}.c{fill:#e6f7fe;}.d{fill:#d5f1fe;}.e{fill:#3d4ec6;}.f{fill:#2b3894;}.g{fill:#4fd1be;}.h{fill:#14ada9;}.i{fill:#279989;}.j{fill:#fff;}.k{fill:#fbbc8d;}</style></defs><g transform="translate(-699.001 -164.208)"><g transform="translate(699.001 164.208)"><path class="a" d="M52.148,119.625l27.7-10.959a48.868,48.868,0,1,0-30.974,11.07c1.1,0,2.195-.04,3.279-.111Zm0,0" transform="translate(-0.001 -17.612)"/><path class="b" d="M204.521,156.9A26.016,26.016,0,0,0,202.1,143.21c-5.394-10.973-4.157-11.769-4.324-22.659a4.028,4.028,0,1,0-8.056,0v40.5a8.934,8.934,0,0,1-.191,1.833v5.8a8.872,8.872,0,0,1-8.861,8.862H158.621a31.288,31.288,0,0,0,13.4,10.634l.1.041a13.138,13.138,0,0,1,7.008,7.072,48.638,48.638,0,0,0,27.7-10.958l-3-11.029a14.079,14.079,0,0,1-.446-4.842Zm0,0" transform="translate(-126.982 -93.281)"/><path class="b" d="M47.1,107.675l-1.227-1.137a4.688,4.688,0,0,0-6.373,6.878l7.6,7.042Zm0,0" transform="translate(-30.427 -84.292)"/><path d="M123.027,0H88.577a6.069,6.069,0,0,0-6.062,6.063v72.6a6.069,6.069,0,0,0,6.062,6.063h34.45a6.07,6.07,0,0,0,6.063-6.063V6.063A6.07,6.07,0,0,0,123.027,0Zm0,0" transform="translate(-66.057)"/><path d="M94.185,4.5A3.062,3.062,0,0,1,95.463,0H88.574a6.063,6.063,0,0,0-6.063,6.063v72.6a6.062,6.062,0,0,0,6.063,6.062H95.9V9.809A9.546,9.546,0,0,0,94.185,4.5Zm0,0" transform="translate(-66.054 0)"/><path class="c" d="M100.109,191.977v40.371a2.553,2.553,0,0,0,2.552,2.553h34.45a2.553,2.553,0,0,0,2.553-2.553V191.977Zm0,0" transform="translate(-80.141 -153.685)"/><path class="d" d="M100.109,191.977v40.371a2.553,2.553,0,0,0,2.552,2.553H108.7V191.977Zm0,0" transform="translate(-80.141 -153.685)"/><path class="e" d="M137.573,236.976a4,4,0,1,1-4-4A4,4,0,0,1,137.573,236.976Zm0,0" transform="translate(-103.729 -186.506)"/><path class="e" d="M137.573,311.332a4,4,0,1,1-4-4A4,4,0,0,1,137.573,311.332Zm0,0" transform="translate(-103.729 -246.031)"/><path class="f" d="M133.121,233.113a4,4,0,1,0,3.763,6.216A4,4,0,0,1,133.121,233.113Zm0,0" transform="translate(-103.729 -186.616)"/><path class="f" d="M133.121,307.469a4,4,0,1,0,3.763,6.216A4,4,0,0,1,133.121,307.469Zm0,0" transform="translate(-103.729 -246.141)"/><g transform="translate(39.014 45.815)"><path class="g" d="M202.772,232.687h-5.678a1.5,1.5,0,0,1,0-2.992h5.678a1.5,1.5,0,0,1,0,2.992Zm0,0" transform="translate(-195.597 -229.695)"/><path class="g" d="M208.45,264.359H197.094a1.5,1.5,0,1,1,0-2.992H208.45a1.5,1.5,0,0,1,0,2.992Zm0,0" transform="translate(-195.597 -255.05)"/><path class="g" d="M202.772,307.039h-5.678a1.5,1.5,0,0,1,0-2.992h5.678a1.5,1.5,0,0,1,0,2.992Zm0,0" transform="translate(-195.597 -289.217)"/><path class="g" d="M208.45,338.711H197.094a1.5,1.5,0,1,1,0-2.992H208.45a1.5,1.5,0,1,1,0,2.992Zm0,0" transform="translate(-195.597 -314.571)"/></g><path class="h" d="M137.011,17.6h-5.12a.874.874,0,0,0-.874.873,2.112,2.112,0,0,1-2.105,2.106h-18.25a2.112,2.112,0,0,1-2.106-2.106.874.874,0,0,0-.874-.873h-5.12a2.553,2.553,0,0,0-2.553,2.553V52.779h39.556V20.15a2.553,2.553,0,0,0-2.553-2.553Zm0,0" transform="translate(-80.06 -14.088)"/><path class="a" d="M108.619,18.976a2.073,2.073,0,0,1-.064-.5.874.874,0,0,0-.874-.874h-5.12a2.553,2.553,0,0,0-2.553,2.553V52.779h8.611Zm0,0" transform="translate(-80.06 -14.088)"/><path class="i" d="M212.615,17.6h-5.12a.874.874,0,0,0-.874.873,2.112,2.112,0,0,1-2.105,2.106H194.45l20.718,25.971V20.15a2.553,2.553,0,0,0-2.553-2.552Zm0,0" transform="translate(-155.665 -14.087)"/><path class="j" d="M133.227,65.2h-6.9a1.5,1.5,0,1,1,0-2.992h6.9a1.5,1.5,0,0,1,0,2.992Zm0,0" transform="translate(-99.933 -49.799)"/><path class="b" d="M61.619,187.908a4.109,4.109,0,0,1-5.805.221l-6.881-6.376a4.108,4.108,0,0,1,5.584-6.027L61.4,182.1A4.109,4.109,0,0,1,61.619,187.908Zm0,0" transform="translate(-38.119 -139.8)"/><path class="k" d="M81.161,199.915l-3.273-3.033A4.823,4.823,0,0,1,72.3,202.91l3.272,3.032a4.108,4.108,0,1,0,5.584-6.027Zm0,0" transform="translate(-57.883 -157.612)"/><path class="b" d="M61.619,244.084a4.108,4.108,0,0,1-5.805.221l-6.881-6.376a4.108,4.108,0,1,1,5.584-6.026l6.881,6.376A4.108,4.108,0,0,1,61.619,244.084Zm0,0" transform="translate(-38.119 -184.771)"/><path class="b" d="M61.619,300.256a4.108,4.108,0,0,1-5.805.221L48.933,294.1a4.108,4.108,0,0,1,5.584-6.027l6.881,6.376A4.109,4.109,0,0,1,61.619,300.256Zm0,0" transform="translate(-38.119 -229.739)"/><path class="k" d="M237.921,391.622a14.173,14.173,0,0,1-.432-2.388,32.781,32.781,0,0,1-36.273,14.693,31.258,31.258,0,0,0,4.9,2.57l.1.042a13.132,13.132,0,0,1,7.008,7.071,48.638,48.638,0,0,0,27.7-10.959Zm0,0" transform="translate(-161.08 -311.597)"/><path class="k" d="M81.161,256.091l-3.273-3.032a4.822,4.822,0,0,1-5.583,6.027l3.272,3.032a4.108,4.108,0,1,0,5.584-6.026Zm0,0" transform="translate(-57.883 -202.583)"/><path class="k" d="M81.161,312.263l-3.273-3.032a4.823,4.823,0,0,1-5.583,6.027l3.272,3.032a4.108,4.108,0,1,0,5.584-6.027Zm0,0" transform="translate(-57.883 -247.551)"/></g></g></svg>